<?xml version="1.0" standalone="no"?>
<!DOCTYPE svg PUBLIC "-//W3C//DTD SVG 20010904//EN"
 "http://www.w3.org/TR/2001/REC-SVG-20010904/DTD/svg10.dtd">
<svg version="1.0" xmlns="http://www.w3.org/2000/svg"
 width="560.000000pt" height="560.000000pt" viewBox="0 0 560.000000 560.000000"
 preserveAspectRatio="xMidYMid meet">
<metadata>
Created by potrace 1.11, written by Peter Selinger 2001-2013
</metadata>
<g transform="translate(0.000000,560.000000) scale(0.100000,-0.100000)"
fill="#000000" stroke="none">
<path d="M1690 5588 c-1 -7 -3 -37 -5 -65 -4 -57 -3 -58 26 -43 16 9 19 7 19
-10 0 -32 32 -24 57 14 11 18 23 51 25 72 l3 39 -62 3 c-46 2 -63 0 -63 -10z"/>
<path d="M2263 5588 c-28 -13 -30 -28 -4 -28 10 0 21 9 24 20 3 11 4 20 4 19
-1 0 -12 -5 -24 -11z"/>
<path d="M3160 5588 c0 -19 11 -30 55 -59 109 -70 132 -86 155 -106 14 -13 30
-23 36 -23 6 0 26 -16 45 -35 19 -19 39 -39 44 -45 51 -52 107 -99 122 -102
10 -2 17 -10 15 -17 -1 -7 3 -20 10 -28 10 -13 13 -12 18 4 9 24 0 93 -12 93
-5 0 -8 12 -7 28 1 15 -1 44 -6 65 -8 41 5 104 36 174 17 38 22 42 46 38 16
-2 45 -7 65 -10 28 -4 40 -13 52 -37 9 -17 16 -42 16 -55 0 -13 6 -24 15 -24
8 -1 21 -2 28 -3 6 -1 11 7 9 17 -2 10 3 17 13 17 8 0 16 -9 16 -20 2 -24 3
-28 13 -58 5 -15 3 -29 -6 -39 -13 -16 -14 -19 -16 -65 -2 -22 -7 -28 -26 -28
-16 0 -26 7 -29 21 -9 35 -43 20 -40 -18 2 -20 -3 -33 -12 -37 -14 -5 -19 10
-18 52 1 6 -3 12 -7 12 -5 0 -10 -6 -13 -12 -3 -10 -9 -10 -25 -1 -18 11 -20
9 -26 -18 -3 -16 -1 -40 4 -54 7 -19 6 -25 -4 -25 -8 0 -21 -11 -30 -25 -20
-30 -20 -35 -1 -35 8 0 15 -4 15 -10 0 -5 11 -10 25 -10 30 0 75 -22 124 -59
24 -18 36 -22 39 -13 3 10 7 10 18 1 10 -8 11 -15 4 -25 -7 -8 -8 -19 -2 -31
24 -46 34 -103 36 -190 1 -77 4 -97 19 -107 25 -19 21 -24 -20 -28 -36 -3 -37
-3 -17 -22 13 -14 15 -21 6 -24 -15 -5 -15 -20 1 -52 7 -14 14 -43 15 -64 2
-21 8 -48 14 -59 6 -11 12 -43 15 -71 3 -41 15 -68 58 -137 30 -48 55 -91 55
-96 0 -5 14 -31 31 -58 27 -42 29 -51 19 -71 -10 -18 -10 -35 3 -86 33 -134
41 -235 43 -578 4 -542 17 -675 60 -639 11 9 16 6 23 -12 7 -19 5 -26 -11 -33
-14 -7 -18 -16 -14 -32 12 -46 26 -74 37 -74 8 0 8 -4 -1 -15 -10 -12 -10 -16
1 -20 8 -3 15 -19 16 -36 1 -18 10 -43 20 -58 10 -14 19 -39 21 -56 1 -16 7
-43 12 -59 6 -16 10 -53 10 -82 0 -42 -4 -55 -19 -63 -10 -6 -21 -7 -25 -4 -3
3 -6 -15 -6 -40 0 -28 -5 -47 -11 -47 -6 0 -9 -6 -6 -13 5 -13 -13 -115 -28
-164 -6 -19 -3 -23 13 -23 27 0 51 -28 32 -40 -17 -11 -40 -79 -29 -86 5 -3
27 -4 48 -3 44 3 171 -43 171 -63 0 -13 -48 -9 -53 5 -3 9 -8 9 -22 -3 -9 -8
-32 -13 -49 -11 l-31 3 28 -29 c17 -18 25 -36 22 -46 -4 -8 -1 -26 6 -39 7
-12 14 -41 17 -63 2 -22 10 -47 17 -55 7 -9 15 -57 18 -119 3 -70 10 -106 18
-112 11 -6 10 -9 -4 -15 -21 -8 -22 -24 -2 -24 10 0 15 -10 15 -30 0 -17 4
-38 9 -48 29 -58 32 -68 22 -95 -6 -15 -17 -27 -25 -27 -20 0 -51 -57 -35 -62
8 -3 6 -15 -7 -38 -10 -19 -17 -41 -16 -48 2 -6 -7 -12 -19 -12 -19 0 -20 4
-14 32 4 18 7 49 6 68 0 19 0 48 0 63 0 15 -6 37 -12 48 -7 15 -7 24 1 34 15
18 5 35 -21 35 -10 0 -19 5 -19 10 0 6 9 10 20 10 22 0 25 7 11 29 -5 7 -13
11 -19 7 -15 -9 -27 13 -14 26 6 6 12 6 16 -1 17 -27 27 -7 25 46 -3 70 -18
103 -44 103 -19 0 -19 1 2 15 22 16 22 46 -2 75 -7 8 -15 27 -19 43 -4 15 -22
45 -41 66 -19 21 -35 46 -35 55 0 9 -4 16 -9 16 -5 0 -9 -6 -8 -12 1 -44 -6
-129 -10 -113 -3 11 -10 26 -15 32 -6 7 -9 36 -7 65 4 82 0 108 -14 108 -20 0
-31 -323 -16 -461 11 -102 6 -246 -9 -261 -4 -4 -7 52 -7 125 0 191 -14 295
-36 281 -15 -9 -10 13 6 26 14 12 13 15 -5 32 -11 10 -20 29 -20 41 1 21 1 22
15 3 16 -22 17 -19 16 49 0 22 -1 83 -1 135 -1 52 -4 103 -6 113 -8 26 -22 11
-16 -18 2 -14 -1 -32 -8 -40 -6 -8 -9 -23 -5 -34 3 -10 1 -22 -5 -26 -18 -11
-32 -56 -36 -115 -2 -30 -7 -64 -12 -75 -33 -72 -53 -266 -32 -306 11 -20 20
-118 25 -274 2 -66 7 -130 10 -143 3 -13 6 -142 6 -287 0 -145 4 -278 9 -296
6 -20 6 -38 0 -48 -7 -12 -9 -9 -10 17 0 17 -4 32 -10 32 -6 0 -10 -29 -10
-68 l0 -68 45 -3 c31 -1 45 2 46 11 4 37 -4 134 -11 138 -20 14 -32 158 -28
340 1 30 1 71 0 90 -10 288 -10 341 1 337 7 -2 13 -28 15 -60 2 -31 7 -57 12
-57 5 0 4 -13 -2 -30 -12 -36 -3 -74 12 -50 6 8 10 11 10 6 0 -5 7 -3 15 4 22
18 20 -13 -1 -35 -19 -18 -32 -165 -16 -165 12 0 21 -69 10 -72 -4 -2 -10 -25
-14 -53 l-6 -50 21 25 21 25 0 -37 c0 -31 -4 -38 -20 -38 -20 0 -28 -24 -11
-35 5 -3 7 -21 4 -40 -4 -24 -2 -35 6 -35 7 0 9 5 6 10 -3 6 -2 10 4 10 15 0
32 -36 25 -54 -3 -9 -11 -16 -18 -16 -8 0 -10 -26 -8 -85 l3 -85 40 0 c37 0
39 2 39 31 0 17 4 28 10 24 6 -3 10 -17 10 -31 0 -24 1 -24 91 -24 90 0 91 0
86 23 -7 24 7 56 19 44 4 -3 7 -19 8 -34 l1 -28 340 0 340 0 3 22 c2 12 10 24
18 27 17 6 29 -17 20 -39 -5 -13 22 -15 204 -15 l210 0 0 2339 c0 2070 -2
2340 -15 2345 -9 3 -15 0 -15 -9 0 -8 -4 -15 -10 -15 -16 0 -12 23 13 71 19
38 22 61 24 164 1 107 -1 121 -18 133 -25 17 -24 42 1 49 11 3 20 12 20 20 0
11 -4 11 -21 2 -17 -9 -25 -8 -37 4 -20 21 -9 46 28 58 25 9 30 16 30 45 0 23
-6 38 -20 46 -11 7 -20 16 -20 20 0 5 9 8 20 8 24 0 26 26 4 51 -15 17 -15 20
0 43 25 39 19 55 -8 21 -13 -16 -28 -26 -33 -22 -4 5 6 21 22 36 18 16 31 38
33 56 2 22 0 26 -7 16 -8 -12 -12 -12 -26 2 -9 10 -21 17 -26 17 -6 0 -7 6 -3
13 6 9 4 9 -8 -1 -14 -11 -18 -10 -28 8 -9 16 -9 25 -1 33 6 6 11 19 11 29 0
16 -9 18 -75 18 -43 0 -75 -4 -75 -10 0 -5 -15 -10 -34 -10 -18 0 -39 -6 -45
-14 -25 -30 -7 -175 27 -206 9 -8 34 -28 54 -44 32 -24 46 -30 78 -35 2 -1 -6
-8 -18 -17 -31 -21 -28 -37 13 -68 35 -27 48 -53 20 -42 -18 6 -45 -2 -45 -15
0 -4 8 -5 18 -2 15 6 15 5 3 -10 -7 -9 -24 -17 -36 -17 -12 0 -28 -6 -35 -14
-6 -8 -21 -16 -33 -18 -12 -2 -22 -7 -22 -13 1 -13 -44 -37 -56 -29 -16 9 -47
-6 -52 -26 -4 -15 -11 -18 -44 -13 -38 5 -41 3 -48 -23 -6 -21 -9 -24 -12 -11
-6 23 -33 22 -33 -1 0 -15 -6 -17 -36 -14 -30 4 -35 2 -32 -14 2 -14 -2 -18
-15 -16 -9 2 -24 -4 -33 -13 -8 -8 -31 -15 -49 -15 -20 0 -38 -6 -43 -15 -7
-14 -16 -14 -58 -5 -46 10 -50 10 -67 -11 -15 -19 -30 -23 -75 -25 -31 -1 -75
-9 -97 -19 -22 -10 -55 -19 -73 -20 -18 -1 -43 -12 -56 -24 -12 -12 -29 -19
-37 -16 -9 3 -19 -6 -27 -25 -16 -36 -32 -39 -32 -7 0 29 -18 47 -46 47 -36 0
-47 -23 -22 -45 l22 -18 -22 -15 c-12 -8 -22 -21 -22 -28 0 -17 -10 -17 -31
-1 -9 7 -14 18 -12 25 6 16 -2 15 -37 -3 -25 -13 -29 -13 -34 1 -19 49 29 113
98 133 21 5 55 21 75 34 80 53 143 87 159 87 15 0 15 2 2 10 -12 8 -9 10 12
10 15 0 30 5 33 10 4 6 12 10 18 8 7 -1 32 8 57 19 l45 21 -37 7 c-20 4 -43 3
-50 -1 -7 -4 7 12 31 36 42 41 45 42 59 24 14 -18 14 -18 9 4 -3 12 -1 22 4
22 5 0 9 4 9 10 0 5 10 21 22 35 16 19 24 22 35 14 9 -9 17 -8 28 1 12 10 16
9 21 -4 6 -14 9 -14 25 5 11 12 19 28 19 35 0 27 56 93 90 108 19 8 61 17 93
20 74 6 103 25 118 77 16 52 6 70 -50 87 -37 13 -42 18 -52 58 l-11 44 -914 0
c-725 0 -914 -3 -914 -12z m2228 -52 c14 -13 6 -76 -10 -76 -5 0 -6 16 -2 36
5 29 4 36 -7 32 -8 -3 -16 -13 -17 -24 -2 -10 -9 -23 -14 -29 -7 -7 -8 2 -4
28 5 24 3 37 -4 37 -6 0 -12 -6 -14 -12 -12 -41 -17 -50 -22 -45 -4 3 -3 22 0
41 7 35 8 36 44 30 20 -3 43 -11 50 -18z m-976 -11 c6 -28 1 -35 -21 -35 -20
0 -44 47 -27 54 27 11 44 5 48 -19z m-85 -11 c-3 -3 -12 -4 -19 -1 -8 3 -5 6
6 6 11 1 17 -2 13 -5z m1147 -9 c24 -24 6 -60 -30 -60 -23 0 -30 5 -32 23 -6
44 32 67 62 37z m49 -56 c-5 -19 -4 -20 16 -9 33 17 36 6 5 -19 -42 -33 -54
-28 -42 19 6 22 14 38 18 35 5 -3 6 -15 3 -26z m-6 -175 c7 -19 -24 -47 -44
-40 -16 7 -17 -6 -1 -22 18 -18 -3 -14 -24 5 -27 24 -22 33 17 33 25 0 35 4
35 16 0 10 -6 14 -15 10 -8 -3 -15 -1 -15 4 0 17 40 11 47 -6z m51 -61 c2 -14
-5 -27 -21 -38 -48 -31 -81 17 -34 50 29 20 51 15 55 -12z m-1694 -109 c17 -7
22 -44 6 -44 -5 0 -10 5 -10 10 0 6 -7 10 -15 10 -8 0 -15 7 -15 15 0 16 9 19
34 9z m1664 -56 c-2 -14 5 -30 17 -40 19 -16 19 -17 1 -37 -28 -31 -60 -22
-62 18 -1 27 1 29 14 19 11 -9 14 -9 9 -1 -4 6 -3 14 3 18 6 4 8 11 5 16 -4 5
-3 14 0 19 10 17 17 11 13 -12z m-748 -198 c0 -5 -4 -10 -10 -10 -5 0 -10 5
-10 10 0 6 5 10 10 10 6 0 10 -4 10 -10z m-659 -217 c-8 -15 -10 -15 -11 -2 0
17 10 32 18 25 2 -3 -1 -13 -7 -23z m-16 -93 c3 -5 1 -10 -4 -10 -6 0 -11 5
-11 10 0 6 2 10 4 10 3 0 8 -4 11 -10z m-138 -52 c-3 -8 -6 -5 -6 6 -1 11 2
17 5 13 3 -3 4 -12 1 -19z m240 -1510 c-3 -8 -6 -5 -6 6 -1 11 2 17 5 13 3 -3
4 -12 1 -19z m174 -870 c0 -7 2 -28 4 -45 2 -23 -1 -33 -10 -33 -8 0 -13 8
-13 18 1 9 -2 29 -5 45 -6 21 -4 27 8 27 8 0 15 -6 16 -12z m-14 -130 c-3 -7
-5 -2 -5 12 0 14 2 19 5 13 2 -7 2 -19 0 -25z m-16 -181 c-1 -12 -15 -9 -19 4
-3 6 1 10 8 8 6 -3 11 -8 11 -12z m237 -177 c10 -18 30 -34 52 -41 57 -18 135
-57 166 -84 l29 -26 -42 3 c-23 1 -40 5 -37 10 3 4 -2 8 -11 8 -9 0 -14 3 -11
8 2 4 -7 12 -20 19 -28 13 -29 11 -8 -28 8 -17 13 -38 9 -47 -5 -14 -11 -12
-36 16 -29 32 -53 40 -64 22 -10 -17 -25 -1 -25 28 0 20 3 23 12 14 18 -18 28
-15 28 8 0 13 -7 20 -19 20 -10 0 -32 14 -49 30 -18 17 -36 30 -42 30 -5 0
-10 6 -10 13 0 39 55 37 78 -3z m-83 -40 c0 -8 -10 -16 -22 -18 -18 -3 -23 2
-23 18 0 16 5 21 23 18 12 -2 22 -10 22 -18z m-396 -52 c0 -27 -2 -29 -8 -13
-5 11 -6 26 -4 33 8 21 13 13 12 -20z m451 -51 c0 -7 -18 -18 -40 -24 -46 -12
-53 -1 -12 20 35 19 52 20 52 4z m368 -59 c30 -15 28 -28 -5 -28 -22 0 -25 2
-13 10 12 8 11 10 -7 10 -13 0 -23 4 -23 8 0 12 -51 34 -59 27 -3 -4 -6 -12
-6 -18 0 -16 -44 -22 -58 -8 -8 8 -6 11 6 11 9 0 17 4 17 8 0 4 15 12 33 18
26 8 38 7 62 -8 17 -11 40 -24 53 -30z m-383 22 c-3 -5 -10 -10 -16 -10 -5 0
-9 5 -9 10 0 6 7 10 16 10 8 0 12 -4 9 -10z m13 -42 c-3 -7 -13 -13 -23 -13
-10 0 -20 6 -22 13 -3 7 5 12 22 12 17 0 25 -5 23 -12z m302 -15 c10 -3 4 -9
-19 -19 -41 -17 -38 -17 -45 2 -12 31 7 36 64 17z m132 -18 c4 -19 1 -25 -13
-25 -19 0 -43 33 -32 44 15 15 41 4 45 -19z m-392 -45 c0 -20 -5 -30 -15 -30
-17 0 -18 4 -9 38 9 32 24 27 24 -8z m70 -13 c0 -14 -20 -37 -32 -37 -10 0
-11 34 -1 43 11 12 33 8 33 -6z m78 -14 c-5 -26 -38 -29 -38 -4 0 15 6 21 21
21 14 0 19 -5 17 -17z m212 7 c0 -5 7 -10 16 -10 9 0 14 -6 11 -12 -2 -8 -16
-12 -33 -10 -35 4 -36 5 -28 26 7 17 34 22 34 6z m-443 -16 c8 -21 -13 -42
-28 -27 -13 13 -5 43 11 43 6 0 13 -7 17 -16z m322 -28 c-1 -16 -2 -17 -6 -3
-2 9 -9 17 -14 17 -5 0 -9 4 -9 10 0 5 7 7 15 4 8 -4 14 -16 14 -28z m181 9
c7 -9 8 -15 2 -15 -5 0 -12 7 -16 15 -3 8 -4 15 -2 15 2 0 9 -7 16 -15z m-431
-37 c-10 -19 -29 -16 -29 6 0 6 5 17 12 24 17 17 30 -6 17 -30z m61 3 c0 -12
-20 -25 -27 -18 -7 7 6 27 18 27 5 0 9 -4 9 -9z m264 -47 c-3 -34 -11 -40 -19
-15 -3 12 -11 21 -17 21 -7 0 -6 5 2 14 17 21 38 9 34 -20z m70 -31 c9 -24 -9
-39 -29 -23 -8 7 -15 19 -15 26 0 20 37 17 44 -3z m106 -64 c0 -11 -4 -17 -10
-14 -5 3 -10 13 -10 21 0 8 5 14 10 14 6 0 10 -9 10 -21z m-785 -39 c3 -5 1
-10 -4 -10 -6 0 -11 5 -11 10 0 6 2 10 4 10 3 0 8 -4 11 -10z m673 -28 c2 -8
-8 -12 -27 -12 -29 0 -41 16 -25 33 8 8 47 -8 52 -21z m-642 -171 c8 -41 12
-83 8 -93 -7 -22 4 -23 28 -1 17 15 18 15 18 -6 0 -12 -5 -30 -12 -40 -8 -14
-9 -31 -2 -58 8 -32 14 -39 39 -41 33 -4 55 -18 55 -36 0 -8 -13 -11 -35 -8
l-35 4 0 -44 c0 -24 4 -48 9 -54 14 -15 29 -91 21 -104 -12 -19 -30 -2 -30 27
0 26 -16 92 -30 128 -5 11 -14 37 -20 57 -10 33 -15 37 -36 32 -20 -5 -24 -2
-24 15 0 14 9 25 25 31 29 11 32 34 9 79 -11 22 -17 65 -18 139 -3 114 2 110
30 -27z m384 109 c0 -5 -4 -10 -10 -10 -5 0 -10 5 -10 10 0 6 5 10 10 10 6 0
10 -4 10 -10z m280 -9 c0 -27 -17 -35 -23 -11 -5 19 0 30 15 30 4 0 8 -9 8
-19z m165 -43 c14 -95 12 -132 -8 -136 -14 -3 -17 3 -16 30 1 51 -6 122 -14
134 -7 13 1 24 18 24 7 0 16 -23 20 -52z m-645 12 c0 -5 -4 -10 -10 -10 -5 0
-10 5 -10 10 0 6 5 10 10 10 6 0 10 -4 10 -10z m-140 -20 c0 -5 -4 -10 -10
-10 -5 0 -10 5 -10 10 0 6 5 10 10 10 6 0 10 -4 10 -10z m-220 -79 c-7 -13
-10 -11 -15 12 -4 15 -4 35 0 44 6 15 9 13 16 -11 4 -16 4 -36 -1 -45z m374
38 c-3 -5 -10 -7 -15 -3 -5 3 -7 10 -3 15 3 5 10 7 15 3 5 -3 7 -10 3 -15z
m530 -4 c-3 -7 6 -29 20 -48 28 -37 32 -47 16 -47 -16 0 -60 78 -54 95 3 8 10
15 15 15 4 0 6 -7 3 -15z m-566 -67 c-4 -78 -22 -104 -24 -35 -1 23 -5 57 -9
75 -6 28 -5 32 15 32 20 0 21 -4 18 -72z m-62 -58 c-4 -57 -14 -61 -14 -6 0
25 3 46 8 46 5 0 7 -18 6 -40z m431 -49 c0 -28 -3 -51 -8 -51 -5 0 -9 8 -9 18
0 22 -29 84 -43 93 -5 4 -6 12 -3 18 5 8 16 5 35 -8 23 -17 27 -27 28 -70z
m-87 64 c0 -3 -11 -17 -25 -31 -15 -15 -24 -33 -21 -42 6 -20 -26 -62 -47 -62
-15 0 -30 60 -21 83 8 21 114 69 114 52z m430 -5 c0 -5 -4 -10 -10 -10 -5 0
-10 5 -10 10 0 6 5 10 10 10 6 0 10 -4 10 -10z m-674 -17 c-9 -9 23 -35 34
-28 14 9 40 -13 40 -32 0 -12 -8 -14 -37 -8 -46 8 -49 11 -58 52 -6 28 -4 32
10 27 9 -4 14 -9 11 -11z m-272 -8 c-7 -17 -20 -20 -28 -6 -7 10 3 21 20 21 8
0 11 -6 8 -15z m-58 -42 c-10 -10 -19 5 -10 18 6 11 8 11 12 0 2 -7 1 -15 -2
-18z m281 -18 c17 -17 16 -21 -7 -26 -16 -4 -20 1 -20 26 0 19 7 19 27 0z
m723 -29 c0 -3 -4 -8 -10 -11 -5 -3 -10 -1 -10 4 0 6 5 11 10 11 6 0 10 -2 10
-4z m-340 -26 c0 -5 -7 -10 -16 -10 -8 0 -12 5 -9 10 3 6 10 10 16 10 5 0 9
-4 9 -10z m380 -35 c0 -46 -14 -46 -17 0 -1 19 2 35 8 35 5 0 9 -16 9 -35z
m-680 12 c0 -21 -12 -28 -27 -15 -11 9 -17 9 -24 -3 -5 -8 -9 -9 -9 -3 0 16
22 34 42 34 10 0 18 -6 18 -13z m460 3 c0 -5 -4 -10 -10 -10 -5 0 -10 5 -10
10 0 6 5 10 10 10 6 0 10 -4 10 -10z m-708 -117 c-4 -61 -21 -91 -21 -35 0 15
0 51 0 81 0 29 3 59 6 65 11 17 19 -43 15 -111z m867 2 l0 -50 -18 54 c-10 29
-25 57 -32 62 -12 8 -11 11 1 19 25 16 50 -27 49 -85z m-342 79 c-3 -3 -12 -4
-19 -1 -8 3 -5 6 6 6 11 1 17 -2 13 -5z m233 2 c0 -3 -4 -8 -10 -11 -5 -3 -10
-1 -10 4 0 6 5 11 10 11 6 0 10 -2 10 -4z m-492 -64 c2 -7 -3 -12 -12 -12 -9
0 -16 7 -16 16 0 17 22 14 28 -4z m672 -18 c0 -8 -4 -14 -10 -14 -5 0 -10 9
-10 21 0 11 5 17 10 14 6 -3 10 -13 10 -21z m-188 -16 c-9 -9 -15 -9 -24 0
-10 10 -10 15 2 22 20 12 38 -6 22 -22z m-552 7 c0 -8 -4 -15 -10 -15 -5 0
-10 7 -10 15 0 8 5 15 10 15 6 0 10 -7 10 -15z m270 7 c0 -14 -11 -21 -26 -15
-21 8 -17 23 6 23 11 0 20 -4 20 -8z m-205 -42 c-3 -5 -15 -10 -26 -10 -10 0
-19 5 -19 10 0 6 12 10 26 10 14 0 23 -4 19 -10z m495 -25 c0 -8 -4 -15 -10
-15 -5 0 -10 7 -10 15 0 8 5 15 10 15 6 0 10 -7 10 -15z m192 -27 c-13 -13
-26 8 -17 30 6 16 7 16 17 -1 7 -13 7 -22 0 -29z m-722 -39 c0 -14 -7 -19 -30
-19 -24 0 -30 4 -30 23 0 18 2 19 11 7 9 -13 11 -13 22 2 13 20 27 14 27 -13z
m-369 -22 c-8 -8 -11 -5 -11 9 0 27 14 41 18 19 2 -9 -1 -22 -7 -28z m264 6
c16 -38 13 -97 -5 -108 -10 -6 -25 79 -16 94 4 5 2 12 -4 16 -13 8 -13 35 0
35 5 0 17 -17 25 -37z m-212 12 c4 -8 2 -17 -3 -20 -6 -4 -10 3 -10 14 0 25 6
27 13 6z m964 -43 c-3 -15 1 -32 9 -40 18 -17 9 -32 -18 -32 -17 0 -20 5 -15
28 3 15 2 34 -3 42 -5 9 -5 19 2 27 15 19 31 4 25 -25z m-972 -80 c-3 -9 -9
-12 -15 -6 -5 5 -4 27 3 54 l12 45 3 -39 c2 -21 1 -45 -3 -54z m163 49 c3 -16
-1 -22 -10 -19 -7 3 -15 15 -16 27 -3 16 1 22 10 19 7 -3 15 -15 16 -27z m951
-66 c1 -16 -1 -17 -9 -5 -5 8 -9 29 -9 45 1 29 1 29 9 5 4 -14 8 -34 9 -45z
m-459 33 c0 -7 -8 -22 -17 -33 -14 -18 -15 -18 -9 -2 3 10 6 25 6 33 0 8 5 14
10 14 6 0 10 -6 10 -12z m-427 -80 c-2 -28 -6 -54 -8 -57 -3 -2 -15 6 -26 18
-21 22 -21 25 -6 57 26 53 45 44 40 -18z m737 32 c0 -5 -7 -10 -15 -10 -8 0
-15 5 -15 10 0 6 7 10 15 10 8 0 15 -4 15 -10z m-1093 -72 c-3 -7 -5 -2 -5 12
0 14 2 19 5 13 2 -7 2 -19 0 -25z m283 18 c0 -3 -4 -8 -10 -11 -5 -3 -10 -1
-10 4 0 6 5 11 10 11 6 0 10 -2 10 -4z m145 -21 c0 -10 -5 -20 -11 -22 -13 -4
-27 24 -18 38 9 15 29 4 29 -16z m-135 -55 c0 -5 -4 -10 -10 -10 -5 0 -10 5
-10 10 0 6 5 10 10 10 6 0 10 -4 10 -10z m325 0 c-8 -13 -35 -13 -35 0 0 6 9
10 21 10 11 0 17 -4 14 -10z"/>
<path d="M5433 5484 c-9 -23 11 -38 26 -20 13 16 7 36 -10 36 -5 0 -12 -7 -16
-16z"/>
<path d="M5520 5210 c-12 -12 -19 -24 -17 -27 9 -8 45 7 51 22 9 24 -12 27
-34 5z"/>
<path d="M5503 4977 c0 -19 34 -18 49 1 12 15 11 16 -4 3 -13 -10 -21 -11 -31
-2 -10 8 -14 7 -14 -2z"/>
<path d="M2413 5563 c-20 -7 -15 -20 8 -26 27 -7 49 1 49 19 0 14 -32 18 -57
7z"/>
<path d="M2567 5530 c-9 -11 -24 -20 -32 -20 -17 0 -20 -25 -5 -35 14 -9 42
14 33 28 -4 6 0 8 11 4 10 -4 19 -1 23 9 10 26 -11 36 -30 14z"/>
<path d="M2045 5510 c-8 -16 -15 -39 -15 -51 0 -12 -5 -39 -12 -61 -9 -31 -9
-44 0 -59 10 -16 10 -24 -3 -42 -18 -26 -19 -50 -3 -93 9 -27 9 -37 -5 -57
-15 -23 -15 -25 6 -36 l22 -12 -23 5 c-12 2 -28 -1 -35 -8 -21 -21 -54 -36
-81 -36 -14 0 -35 -9 -46 -20 -11 -11 -23 -20 -28 -20 -4 0 -13 -10 -21 -21
-12 -21 -12 -22 20 -15 18 3 40 12 48 19 14 11 30 13 69 8 6 0 12 -10 12 -21
0 -28 27 -36 50 -15 19 17 20 17 20 -4 0 -19 3 -20 20 -11 17 9 20 8 20 -13 0
-28 -28 -116 -44 -136 -15 -19 -9 -49 15 -74 23 -25 25 -53 4 -61 -9 -3 -15
-18 -15 -36 0 -29 1 -30 16 -16 8 9 20 14 25 11 9 -6 17 22 18 63 0 12 1 28 1
35 0 6 -3 28 -6 47 -6 32 -6 34 10 21 10 -8 14 -21 10 -33 -6 -19 11 -48 28
-48 5 0 8 6 5 13 -2 6 3 17 12 23 13 10 18 5 33 -27 26 -60 40 -50 37 25 -2
36 0 68 4 72 14 15 27 -20 27 -73 0 -28 5 -55 10 -58 6 -3 10 -17 10 -30 0
-29 19 -43 31 -24 12 19 11 32 -2 23 -7 -4 -9 2 -7 17 5 34 25 34 31 -1 4 -16
10 -30 15 -30 5 0 7 11 5 24 -6 27 15 45 28 25 5 -8 6 -31 2 -51 -3 -20 -2
-49 1 -65 12 -44 24 -9 25 69 1 78 14 117 26 79 5 -15 12 -21 23 -16 9 3 13 3
9 -1 -4 -4 0 -18 9 -31 16 -26 22 -73 10 -92 -4 -6 0 -14 9 -17 12 -5 15 -15
11 -38 -4 -22 1 -42 18 -68 12 -21 26 -35 29 -31 4 3 7 -3 7 -15 0 -11 5 -24
10 -27 6 -3 10 -19 10 -36 0 -20 5 -29 16 -29 12 0 15 6 11 21 -3 12 -1 29 5
39 8 13 7 25 -4 47 -8 17 -12 37 -7 49 7 18 7 18 14 1 6 -14 10 -15 15 -6 4 6
6 -10 3 -37 -4 -46 -3 -48 12 -29 14 17 17 18 25 5 16 -24 12 -39 -9 -33 -17
4 -20 0 -19 -37 0 -36 3 -41 19 -37 16 4 17 2 8 -14 -5 -10 -19 -19 -29 -19
-21 0 -27 -24 -10 -35 18 -11 11 -23 -10 -18 -21 6 -36 43 -26 68 3 10 -3 17
-19 21 -14 3 -25 10 -25 14 0 5 -11 22 -25 38 -13 16 -22 31 -19 34 2 3 -3 11
-12 19 -15 12 -16 12 -11 -6 3 -11 8 -35 12 -53 4 -18 17 -40 30 -48 13 -9 22
-21 19 -28 -4 -12 41 -106 55 -116 12 -8 22 -60 12 -60 -5 0 -12 7 -15 16 -3
8 -10 13 -15 9 -5 -3 -12 -1 -16 5 -3 5 1 10 9 10 9 0 16 5 16 10 0 6 -4 10
-8 10 -12 0 -52 35 -52 46 0 5 -15 19 -33 32 l-32 22 -3 -26 c-2 -14 4 -34 12
-43 20 -22 4 -41 -36 -41 -18 0 -28 -5 -28 -15 0 -11 8 -13 32 -8 28 6 31 4
26 -15 -4 -12 -2 -22 2 -22 5 0 21 -5 37 -11 27 -10 27 -11 8 -25 -12 -9 -30
-12 -47 -9 -20 5 -32 1 -45 -14 -9 -12 -25 -21 -35 -21 -22 0 -56 -32 -50 -48
2 -7 -3 -12 -11 -12 -26 0 -13 -42 26 -85 20 -22 37 -48 37 -57 0 -20 29 -38
59 -38 15 0 21 -7 21 -22 1 -16 11 -28 35 -39 39 -18 52 -10 35 21 -6 11 -7
27 -3 35 7 11 13 7 27 -20 22 -41 15 -65 -19 -65 -14 0 -25 -4 -25 -8 0 -15
54 -49 88 -55 41 -8 68 5 76 37 5 19 20 30 64 46 31 12 64 27 72 34 24 20 83
33 113 25 27 -7 28 -7 22 23 -4 16 -21 43 -39 59 -25 23 -40 28 -74 27 -24 -1
-47 4 -50 10 -4 6 -21 14 -37 18 -17 4 -34 10 -40 14 -5 5 -21 10 -35 13 -24
4 -24 4 3 6 16 0 25 5 22 11 -3 5 13 9 40 8 32 0 45 -5 45 -15 0 -8 7 -13 18
-11 12 3 16 12 15 31 -2 27 -1 27 52 24 62 -3 59 12 -3 20 -29 4 -46 13 -57
29 -8 13 -12 24 -8 24 4 0 -3 7 -15 16 -13 9 -22 26 -22 40 0 16 -8 28 -22 34
-36 15 -53 32 -73 73 -14 30 -15 40 -5 52 20 24 40 18 40 -12 0 -20 3 -24 9
-14 10 16 31 6 31 -14 0 -12 22 -27 45 -30 40 -6 63 -18 58 -31 -3 -9 0 -12 9
-9 8 3 32 -1 54 -8 21 -8 76 -28 120 -45 121 -44 171 -72 214 -118 33 -35 39
-50 44 -100 4 -33 11 -72 17 -89 14 -42 19 -63 26 -120 3 -27 10 -55 15 -62 5
-7 7 -17 4 -22 -4 -5 -2 -12 4 -16 5 -3 10 -20 10 -38 0 -18 2 -63 3 -102 4
-83 1 -95 -24 -95 -10 0 -19 -7 -19 -15 0 -18 5 -18 31 -5 24 13 25 1 4 -40
-9 -17 -11 -31 -5 -35 5 -3 7 -22 5 -43 -2 -20 -4 -43 -4 -49 -1 -7 -8 -13
-16 -13 -16 0 -31 -42 -21 -59 4 -5 -1 -14 -10 -19 -10 -6 -16 -22 -16 -45 0
-21 -4 -40 -9 -43 -5 -3 -9 -1 -9 5 0 6 -8 7 -17 4 -11 -4 -13 -8 -5 -11 9 -3
10 -15 6 -40 -8 -43 -22 -64 -37 -55 -7 4 -8 0 -4 -11 5 -13 1 -19 -13 -23
-12 -3 -20 -14 -20 -26 0 -11 -3 -17 -7 -14 -3 4 -12 2 -19 -3 -6 -6 -16 -9
-20 -8 -5 2 -11 -1 -12 -7 -2 -5 -8 -15 -14 -22 -5 -7 -7 -17 -3 -23 8 -13
-32 -60 -51 -60 -7 0 -15 -9 -19 -19 -7 -25 -67 -54 -77 -39 -9 16 -38 -9 -38
-33 0 -11 -7 -19 -15 -19 -8 0 -15 8 -15 17 0 14 -3 13 -16 -5 -17 -25 -71
-31 -93 -9 -10 10 -11 8 -5 -7 6 -17 4 -18 -19 -12 -20 5 -27 3 -27 -9 0 -8
-9 -15 -19 -15 -10 0 -21 -6 -24 -14 -3 -8 -19 -17 -36 -21 -17 -4 -33 -11
-36 -16 -4 -5 -15 -9 -26 -9 -10 0 -19 -6 -19 -14 0 -18 -49 -31 -63 -17 -16
16 -47 13 -53 -4 -4 -8 -10 -15 -16 -15 -5 0 -7 4 -3 9 7 13 -26 30 -44 23 -8
-2 -20 4 -28 14 -10 13 -16 15 -25 6 -8 -8 -16 -5 -30 14 -22 28 -69 32 -88 9
-7 -9 -19 -14 -26 -11 -22 8 -72 -14 -77 -35 -5 -18 -7 -18 -34 -3 -34 21
-129 130 -161 186 -13 23 -34 55 -46 72 -30 41 -57 101 -93 211 -81 241 -85
262 -90 415 -3 126 0 169 25 320 26 160 29 171 36 128 7 -45 9 -48 63 -73 52
-23 58 -24 79 -10 13 8 32 15 43 15 21 0 61 44 61 66 0 8 7 14 15 14 11 0 15
-11 15 -35 0 -24 5 -38 16 -42 21 -8 48 9 53 33 2 10 11 24 19 30 15 11 15 18
3 61 -7 26 -14 56 -16 66 -2 10 -15 31 -28 47 -19 22 -27 26 -36 17 -10 -9
-15 -8 -24 4 -7 8 -31 24 -55 34 -23 11 -40 24 -37 29 3 6 8 19 11 29 4 9 9
17 13 17 10 0 8 106 -2 116 -4 4 -4 29 -1 55 4 27 4 56 0 65 -6 16 -8 16 -20
-1 -12 -17 -14 -15 -20 19 -9 48 -23 39 -18 -13 3 -29 8 -38 18 -34 11 4 13
-4 10 -38 -2 -24 -4 -45 -5 -46 -1 -1 -14 3 -30 8 -24 9 -31 19 -41 59 -6 27
-18 57 -25 67 -8 10 -15 32 -15 50 0 17 -4 35 -10 38 -17 11 -11 35 9 35 12 0
20 9 23 25 6 27 -5 102 -16 113 -15 14 -27 -25 -22 -70 6 -58 -9 -73 -18 -18
-9 55 -22 50 -28 -11 -7 -67 -23 -82 -26 -22 -2 47 -11 68 -19 45 -4 -10 -8
-10 -19 -1 -12 10 -14 5 -14 -32 1 -37 -2 -72 -9 -111 -3 -19 -20 -5 -23 19
-4 38 -27 41 -34 4 -6 -31 -7 -31 -26 -14 -20 18 -21 65 -3 136 5 18 3 27 -4
27 -15 0 -30 -40 -42 -110 -14 -76 -12 -150 6 -226 8 -36 15 -74 15 -85 0 -18
-1 -18 -21 2 -11 11 -23 37 -26 57 -9 66 -24 91 -53 87 -21 -2 -25 -7 -26 -37
-1 -19 -4 -40 -8 -47 -7 -11 22 -71 35 -71 10 0 18 -48 12 -71 -7 -26 -23 -14
-24 19 -1 24 -2 24 -10 -8 -5 -19 -9 -93 -9 -165 1 -141 -14 -250 -42 -305
l-17 -35 -2 70 c-3 105 -3 130 9 255 9 109 18 146 44 197 9 19 7 29 -15 62
-15 23 -27 52 -27 66 0 29 -24 34 -52 9 -15 -14 -20 -15 -34 -4 -21 18 -30 3
-44 -70 -5 -30 -14 -76 -20 -101 -5 -25 -6 -55 -3 -67 3 -11 -2 -36 -11 -54
-9 -18 -19 -66 -21 -108 -4 -70 -3 -72 7 -32 6 23 15 42 19 42 5 0 9 -19 9
-42 1 -70 17 -23 35 98 14 96 23 137 41 194 5 13 7 12 15 -2 6 -11 6 -39 -1
-80 -8 -46 -8 -97 0 -188 6 -69 14 -163 17 -210 3 -47 9 -89 14 -94 5 -6 9 0
9 14 0 15 4 20 9 14 5 -5 5 -34 0 -69 -9 -66 -2 -214 12 -231 5 -6 6 -13 3
-16 -3 -3 0 -43 5 -89 6 -46 15 -131 21 -189 15 -145 32 -240 42 -240 4 0 8
14 8 30 0 57 17 30 23 -37 4 -37 11 -71 17 -77 7 -7 10 -4 10 8 0 9 4 15 10
11 5 -3 7 -11 5 -18 -11 -37 -15 -68 -8 -64 21 13 52 -152 53 -274 1 -29 5
-72 10 -94 4 -22 24 -116 44 -210 36 -175 55 -246 67 -255 4 -3 12 -79 19
-169 13 -170 10 -207 -26 -341 -23 -88 -65 -211 -87 -260 -18 -39 -22 -42 -25
-21 -4 27 27 151 38 151 5 0 10 17 13 38 2 20 12 80 22 132 29 163 10 345 -51
485 -15 33 -34 77 -43 97 -11 27 -21 36 -32 32 -11 -3 -19 3 -24 18 -7 21 -8
20 -12 -11 -3 -25 0 -37 17 -48 14 -10 21 -24 19 -42 -2 -30 19 -91 31 -91 33
0 68 -355 48 -490 -8 -57 -27 -132 -38 -145 -4 -5 -10 -29 -14 -53 -3 -24 -10
-51 -15 -60 -29 -57 -38 -125 -21 -152 10 -16 12 -11 14 44 1 11 7 21 15 24
43 14 -41 -127 -115 -193 -13 -11 -74 -103 -74 -111 0 -3 5 -2 12 2 7 5 9 2 5
-7 -20 -49 -34 -69 -52 -71 -36 -5 -57 -64 -50 -138 9 -84 25 -103 25 -28 0
47 4 59 22 72 32 23 36 20 40 -21 2 -20 8 -38 13 -40 9 -3 37 86 51 162 3 17
13 47 22 68 13 30 18 34 23 20 3 -10 5 -34 4 -55 -2 -30 1 -36 16 -35 11 1 19
9 19 19 0 10 4 18 10 18 5 0 13 12 16 28 4 15 10 32 14 37 24 31 80 153 99
214 12 39 26 71 32 71 7 0 8 -7 4 -17 -5 -10 -10 -32 -13 -50 -2 -18 -10 -38
-18 -44 -8 -6 -14 -19 -14 -28 0 -9 -16 -60 -34 -114 -19 -53 -30 -100 -25
-102 9 -6 29 27 29 49 0 8 10 27 23 43 37 45 91 189 102 268 10 83 26 145 37
145 5 0 7 -12 4 -28 -2 -15 -8 -62 -11 -105 -10 -120 -38 -203 -120 -357 -13
-25 -24 -55 -24 -67 -1 -12 -6 -25 -12 -28 -32 -20 -76 -175 -49 -175 6 0 10
20 10 44 0 44 6 51 50 60 3 1 5 -16 6 -37 1 -27 -4 -41 -17 -47 -11 -6 -15
-17 -12 -30 8 -30 20 -24 33 18 6 20 13 43 16 50 2 7 8 11 13 7 11 -6 -27
-105 -40 -105 -5 0 -9 -12 -9 -26 0 -14 -5 -35 -12 -47 -6 -12 -17 -50 -24
-85 l-12 -62 29 0 c26 0 29 4 29 31 0 17 4 28 10 24 5 -3 10 -17 10 -31 0 -24
1 -24 90 -24 73 0 90 3 90 15 0 8 5 15 10 15 6 0 10 -7 10 -15 0 -12 14 -15
64 -15 60 0 64 2 70 25 4 15 11 23 17 19 6 -3 9 -15 6 -25 -5 -18 5 -19 268
-19 l274 0 7 36 c4 22 2 45 -7 60 -15 29 -2 77 23 82 13 3 16 -8 16 -65 0 -37
-2 -72 -6 -78 -20 -32 -11 -35 123 -35 126 0 133 1 149 22 l17 23 -11 -23 -11
-22 273 2 c235 3 273 5 273 18 1 8 7 26 15 40 8 14 13 37 11 52 -2 22 1 27 13
22 26 -10 29 11 35 224 1 60 21 72 21 13 0 -22 5 -43 10 -46 6 -3 10 -26 10
-51 0 -24 5 -44 10 -44 10 0 14 36 11 90 -1 14 4 34 12 44 12 17 12 27 1 70
-8 28 -14 78 -14 111 1 77 17 206 29 218 9 9 27 -203 22 -260 -2 -28 1 -33 18
-33 12 0 21 5 21 12 0 6 3 8 7 4 4 -4 7 -46 6 -94 -1 -80 -1 -84 9 -42 5 25
11 113 11 195 2 118 -1 149 -11 147 -10 -2 -12 13 -10 60 2 35 7 61 12 58 25
-14 45 106 52 318 4 106 11 172 19 189 10 19 11 32 3 49 -14 30 -3 71 22 84
14 7 20 7 20 0 0 -5 -5 -10 -11 -10 -6 0 -8 -9 -4 -20 4 -11 -1 -100 -11 -198
-9 -97 -16 -184 -16 -192 0 -8 -4 -31 -8 -50 -5 -19 -11 -154 -14 -300 -4
-146 -11 -294 -16 -330 -5 -36 -10 -76 -9 -90 l0 -25 13 25 c7 14 16 59 19
101 7 82 19 127 33 119 5 -3 12 20 15 51 7 64 15 82 32 72 9 -5 9 -3 1 8 -11
14 -8 60 21 291 7 56 23 82 22 36 -1 -51 14 -143 23 -146 6 -2 7 -8 4 -14 -8
-13 -32 -197 -26 -203 9 -9 11 -75 2 -80 -5 -3 -7 -56 -4 -118 2 -61 0 -134
-6 -162 -5 -27 -11 -87 -13 -132 l-4 -83 30 0 c28 0 29 1 23 35 -5 27 -4 35 8
35 11 0 13 -8 9 -35 -5 -28 -2 -35 11 -35 9 0 19 7 22 15 4 8 13 15 20 15 12
0 14 34 10 213 -2 116 -7 233 -11 259 -6 35 -4 52 6 64 12 15 15 8 19 -59 5
-75 21 -108 28 -57 2 14 7 30 12 35 16 21 22 117 22 340 0 203 2 225 13 183
16 -58 26 -194 27 -358 0 -81 3 -111 8 -85 12 68 0 426 -17 510 -11 58 -12
291 -2 390 12 102 9 163 -6 120 -3 -12 -15 -27 -26 -33 -18 -12 -19 -10 -13
15 3 16 19 66 34 113 39 118 45 150 28 150 -8 0 -7 4 5 11 20 12 25 83 5 77
-7 -3 -14 -15 -16 -27 -2 -12 -10 -25 -18 -28 -8 -3 -14 -18 -14 -34 0 -16 -4
-29 -8 -29 -5 0 -15 -30 -22 -66 -11 -52 -16 -61 -22 -44 -4 12 -4 29 2 39 5
10 8 26 8 37 -1 10 2 31 5 47 5 17 3 27 -3 27 -6 0 -10 16 -8 35 1 19 5 35 8
35 3 0 6 9 7 20 1 14 -4 20 -18 20 -12 0 -18 -6 -17 -17 3 -29 -25 -112 -39
-117 -19 -8 -16 14 7 59 11 22 20 52 20 67 0 15 5 28 10 28 6 0 10 5 10 10 0
6 -6 10 -14 10 -9 0 -17 -15 -21 -40 -4 -22 -11 -40 -17 -40 -14 0 -61 -52
-77 -86 -7 -16 -18 -37 -23 -47 -5 -10 -25 -64 -44 -120 -20 -56 -51 -146 -70
-200 -19 -54 -46 -120 -59 -147 -14 -27 -25 -54 -25 -60 0 -6 -11 -28 -25 -50
-14 -22 -25 -51 -25 -65 0 -16 -6 -25 -15 -25 -9 0 -18 -7 -21 -15 -4 -8 -12
-15 -20 -15 -8 0 -14 -4 -14 -10 0 -5 7 -10 15 -10 22 0 18 -21 -5 -27 -24 -6
-52 -55 -44 -76 3 -8 1 -18 -5 -22 -7 -4 -11 -45 -11 -104 0 -67 -5 -107 -15
-128 -13 -25 -13 -46 -5 -126 10 -96 3 -143 -22 -158 -7 -4 -7 -12 0 -26 7
-12 7 -25 2 -34 -5 -7 -7 -21 -4 -31 2 -9 0 -19 -6 -23 -13 -8 -13 -52 0 -60
10 -6 14 -45 4 -45 -14 0 -44 22 -39 29 3 5 -2 22 -10 37 -13 26 -13 30 3 46
13 14 16 31 14 83 l-4 65 -33 0 c-19 0 -37 5 -41 11 -5 9 3 10 28 5 42 -8 55
10 32 43 -8 12 -12 26 -9 31 4 6 1 17 -5 25 -6 8 -9 23 -5 34 7 22 -20 36 -51
25 -24 -9 -11 6 18 20 20 10 23 20 24 74 1 34 -2 62 -7 62 -4 0 -15 -25 -24
-55 -8 -30 -20 -55 -25 -55 -13 0 -13 12 4 51 8 19 17 71 21 115 5 70 4 82
-10 88 -10 3 -28 -3 -43 -14 -15 -12 -60 -46 -99 -76 -40 -30 -73 -59 -73 -65
0 -5 -7 -9 -15 -9 -8 0 -21 -14 -30 -30 -11 -21 -23 -30 -40 -30 -14 0 -29 -8
-35 -20 -12 -23 -6 -40 16 -40 8 0 14 -4 14 -10 0 -15 -40 -12 -56 5 -21 21
-26 20 -67 -20 -20 -19 -43 -35 -52 -35 -21 0 -19 -13 5 -28 12 -7 18 -16 16
-21 -3 -4 1 -16 8 -27 8 -10 12 -24 9 -31 -9 -23 -32 -14 -39 15 -10 46 -16
59 -21 45 -6 -15 -33 -17 -33 -3 0 18 -22 10 -57 -20 -18 -16 -40 -30 -48 -30
-8 0 -15 -3 -15 -8 0 -4 -15 -13 -33 -20 -17 -8 -41 -18 -52 -22 -11 -5 -40
-14 -63 -20 -38 -10 -50 -9 -88 9 -24 12 -48 21 -54 21 -5 0 -10 4 -10 10 0 5
-12 13 -27 16 -16 4 -39 18 -52 31 -13 12 -32 23 -42 23 -11 0 -19 5 -19 10 0
6 -6 10 -13 10 -7 0 -35 20 -63 45 -27 24 -52 44 -56 45 -5 0 -8 6 -8 13 0 25
-52 77 -76 77 -14 0 -24 6 -24 14 0 8 -3 21 -6 29 -3 8 2 21 10 30 9 9 16 22
16 29 0 8 6 23 14 33 8 11 12 24 9 31 -2 7 8 36 24 65 25 48 28 66 30 152 1
96 1 98 -24 108 -19 7 -23 12 -14 23 15 17 17 136 4 172 -6 16 -16 61 -23 99
-7 39 -23 93 -36 121 -25 54 -29 74 -15 74 16 0 28 -25 34 -67 3 -23 12 -49
20 -57 8 -8 20 -45 27 -81 7 -36 16 -68 20 -70 5 -3 11 -29 14 -58 3 -28 8
-81 12 -117 7 -71 9 -155 5 -210 -6 -71 -24 -165 -34 -178 -5 -6 -6 -12 -3
-12 4 0 3 -8 -2 -18 -14 -27 -23 -72 -15 -72 5 0 13 10 18 22 6 12 19 26 30
32 25 14 34 25 42 56 3 14 11 28 16 32 7 4 6 12 -3 22 -11 14 -10 16 4 10 16
-6 18 -3 20 48 1 15 5 30 9 34 4 4 7 16 7 27 0 15 3 17 14 8 21 -18 25 6 22
131 -2 62 -2 105 1 96 2 -10 9 -18 14 -18 5 0 9 -16 9 -35 0 -57 17 -40 22 22
3 31 10 59 16 61 8 2 12 29 12 70 1 65 1 66 16 40 8 -16 22 -28 31 -28 13 0
15 8 10 45 -4 27 -2 47 4 51 8 4 7 9 -2 15 -11 8 -11 12 4 23 9 7 17 18 17 25
0 6 7 11 15 11 8 0 18 12 21 27 4 15 16 34 26 43 15 12 19 31 20 103 l2 88 65
-4 c45 -2 66 -7 69 -18 9 -29 45 -59 64 -53 11 3 20 0 24 -9 4 -11 17 -14 50
-11 34 3 44 1 44 -10 0 -11 15 -17 49 -22 45 -6 103 -33 103 -48 0 -23 13 -46
28 -51 10 -3 21 -13 24 -21 4 -11 10 -12 25 -4 27 14 30 13 41 -14 5 -14 31
-42 57 -63 42 -33 48 -43 47 -74 0 -19 -4 -41 -8 -47 -5 -8 0 -12 13 -12 13 0
21 6 21 18 0 18 56 49 68 37 4 -4 1 -10 -5 -12 -15 -5 -18 -33 -4 -33 6 0 13
5 16 10 4 6 10 8 16 5 12 -8 9 -107 -4 -123 -7 -9 -6 -11 8 -6 16 6 17 3 11
-32 -17 -98 -17 -109 -3 -129 14 -18 15 -13 16 55 1 78 12 132 32 156 7 8 25
40 40 72 32 64 37 56 13 -21 -24 -81 -32 -97 -48 -97 -22 0 -19 -87 3 -100 13
-8 14 -11 2 -19 -9 -6 -11 -18 -6 -41 7 -30 8 -32 18 -14 17 28 37 86 37 107
0 23 65 218 90 274 11 24 20 46 20 49 0 3 9 19 21 35 11 16 18 29 14 29 -3 0
5 15 18 32 13 18 37 66 52 106 15 40 32 78 39 85 22 21 61 100 72 142 10 39
-13 29 -26 -11 -7 -20 -26 -48 -42 -62 -28 -25 -88 -134 -88 -160 0 -6 -13
-26 -30 -44 -16 -18 -30 -36 -30 -41 0 -4 -16 -41 -35 -81 -19 -41 -35 -79
-35 -85 0 -6 -4 -11 -10 -11 -16 0 -12 27 10 76 11 24 25 54 30 66 6 13 23 46
39 73 17 28 30 55 30 62 1 11 11 36 66 158 7 17 36 79 64 138 28 59 51 113 51
118 0 6 13 40 30 75 48 105 88 250 109 394 18 128 21 245 8 267 -7 12 41 114
61 129 7 5 18 28 22 50 4 21 18 84 29 139 12 55 24 123 27 150 11 96 17 59 12
-77 -3 -76 -4 -138 -1 -138 13 0 43 95 46 141 1 30 6 57 10 60 4 3 3 28 -3 54
-11 51 -5 117 13 147 9 14 8 20 -5 30 -12 10 -17 39 -21 125 -4 82 -11 124
-26 159 -12 25 -21 55 -21 65 0 11 -4 27 -9 37 -5 9 -16 33 -25 53 -9 20 -26
43 -39 52 -12 8 -34 36 -47 62 -14 27 -33 50 -42 53 -30 7 -35 55 -9 85 11 14
7 17 -26 23 -21 4 -51 14 -68 23 l-30 16 45 5 c51 6 56 22 10 31 -18 4 -37 12
-43 19 -9 10 -9 11 1 6 6 -4 17 -4 23 -1 13 9 -18 45 -40 46 -9 1 -5 4 9 8 14
4 24 13 23 19 -2 8 5 9 23 1 32 -11 42 -5 25 15 -7 8 -10 19 -7 25 7 10 -21
34 -76 65 -26 16 -29 20 -15 24 10 2 32 -1 49 -7 19 -7 35 -8 41 -2 5 5 -14
16 -50 27 l-58 18 35 5 c47 8 31 16 -75 36 -49 10 -98 25 -107 33 -13 11 -21
12 -30 4 -10 -7 -21 -4 -42 15 -39 33 -21 51 25 24 32 -19 129 -39 129 -28 0
3 -20 20 -45 37 -25 17 -45 36 -45 43 0 6 -19 29 -42 52 -24 22 -60 61 -81 86
-31 37 -49 49 -107 68 -38 12 -88 23 -110 24 -22 1 -42 7 -44 14 -6 16 -5 16
28 3 23 -8 26 -7 26 11 0 11 -7 22 -15 25 -18 7 -20 31 -2 37 7 3 2 9 -13 15
-20 8 -28 7 -38 -6 -8 -11 -9 -18 -2 -20 5 -2 10 -8 10 -14 0 -12 -35 -6 -36
7 -4 47 -16 60 -57 62 -83 3 -142 2 -159 -3 -26 -8 -23 23 3 37 12 6 32 9 45
6 13 -2 24 0 24 4 0 5 11 9 24 9 33 0 42 17 15 25 -14 5 -25 2 -30 -6 -7 -11
-9 -9 -9 6 -1 19 -1 19 -15 1 -11 -14 -21 -17 -42 -11 -24 6 -26 8 -10 16 26
15 11 29 -30 29 -21 0 -41 6 -47 16 -9 12 -17 13 -38 5 -14 -5 -35 -7 -47 -4
-11 3 -39 -2 -61 -11 -51 -20 -55 -20 -33 3 10 10 30 21 46 25 15 3 27 11 27
16 0 6 11 10 25 10 26 0 85 25 85 37 0 3 -38 3 -83 0 -46 -4 -87 -4 -91 0 -4
4 -23 6 -42 4 -19 -1 -34 2 -34 8 0 6 10 11 21 11 36 0 3 29 -40 35 -20 3 -51
10 -70 16 -25 9 -39 8 -58 -2 -22 -12 -27 -11 -38 4 -16 22 -78 22 -115 1 -15
-10 -45 -38 -65 -65 -47 -58 -75 -57 -45 2 11 21 20 45 20 53 0 8 23 30 50 50
28 20 50 40 50 46 0 15 -36 12 -50 -5 -7 -8 -16 -15 -21 -15 -5 0 -9 7 -9 15
0 26 -29 16 -45 -15z m279 -255 c7 -27 6 -28 -8 -15 -8 8 -18 29 -22 45 -6 27
-5 28 9 15 8 -8 18 -28 21 -45z m166 -4 c0 -9 -60 -34 -67 -27 -3 2 55 35 65
36 1 0 2 -4 2 -9z m260 -21 c11 -7 5 -10 -22 -10 -21 0 -38 5 -38 10 0 13 40
13 60 0z m-475 -24 c22 -10 37 -11 41 -5 3 6 17 -5 30 -23 21 -28 36 -36 96
-49 67 -16 74 -16 124 1 28 10 62 23 74 30 11 6 28 10 37 8 22 -4 -45 -48
-110 -72 -46 -17 -96 -17 -141 0 -9 4 -16 1 -16 -6 0 -6 9 -14 20 -17 11 -3
20 -10 20 -16 0 -5 11 -25 25 -43 21 -28 23 -37 15 -60 -12 -32 -21 -26 -35
24 -7 24 -21 41 -44 54 -18 10 -36 17 -38 14 -3 -3 9 -24 26 -48 17 -23 31
-52 31 -63 0 -37 21 -89 46 -113 24 -23 32 -52 15 -52 -5 0 -11 10 -13 23 -2
12 -7 22 -13 22 -15 1 -55 29 -55 39 0 25 -55 58 -106 63 -36 4 -54 10 -54 19
0 8 5 14 10 14 19 0 10 17 -17 29 -38 18 -16 32 32 21 22 -5 46 -10 53 -10 20
0 13 31 -9 37 -13 4 -19 13 -18 27 5 49 -42 109 -95 122 l-29 7 24 18 c29 23
31 23 74 5z m695 -137 c0 -18 -35 -5 -38 14 -3 16 -1 17 17 7 12 -6 21 -15 21
-21z m-685 -29 c3 -5 2 -10 -4 -10 -5 0 -13 5 -16 10 -3 6 -2 10 4 10 5 0 13
-4 16 -10z m705 0 c0 -5 -4 -10 -10 -10 -5 0 -10 5 -10 10 0 6 5 10 10 10 6 0
10 -4 10 -10z m-295 -88 c-3 -3 -11 0 -18 7 -9 10 -8 11 6 5 10 -3 15 -9 12
-12z m260 -22 c-3 -5 -13 -10 -21 -10 -8 0 -12 5 -9 10 3 6 13 10 21 10 8 0
12 -4 9 -10z m-57 -18 c2 -7 -3 -12 -12 -12 -9 0 -16 7 -16 16 0 17 22 14 28
-4z m-130 -17 c26 -14 52 -25 59 -25 7 0 28 -7 47 -16 44 -21 39 -45 -7 -33
-70 17 -82 22 -92 34 -5 6 -25 20 -43 29 -18 9 -30 21 -27 26 8 14 10 13 63
-15z m516 9 c11 -27 7 -37 -9 -24 -16 14 -20 40 -6 40 5 0 12 -7 15 -16z
m-801 -14 c3 -11 1 -20 -4 -20 -5 0 -9 9 -9 20 0 11 2 20 4 20 2 0 6 -9 9 -20z
m77 4 c0 -14 -3 -14 -15 -4 -8 7 -15 14 -15 16 0 2 7 4 15 4 8 0 15 -7 15 -16z
m625 -68 c50 -16 50 -16 9 -10 -23 3 -66 7 -95 9 -30 2 -56 4 -59 5 -3 1 -11
3 -19 4 -8 0 -16 7 -19 15 -3 9 1 11 17 6 15 -4 21 -2 21 8 0 13 7 12 48 -3
26 -10 70 -26 97 -34z m-1077 26 c3 -9 -2 -13 -14 -10 -9 1 -19 9 -22 16 -3 9
2 13 14 10 9 -1 19 -9 22 -16z m632 -2 c11 -8 7 -10 -17 -8 -18 1 -33 6 -33
10 0 11 32 10 50 -2z m569 -29 c-16 -5 -33 15 -24 30 6 9 12 7 22 -7 9 -13 10
-20 2 -23z m-939 8 c0 -6 -4 -7 -10 -4 -5 3 -10 11 -10 16 0 6 5 7 10 4 6 -3
10 -11 10 -16z m-200 -22 c11 -5 9 -6 -4 -4 -11 1 -21 9 -23 17 -3 10 -2 11 4
4 4 -6 15 -14 23 -17z m841 -13 c41 -14 79 -27 85 -28 6 -1 19 -9 28 -19 10
-9 21 -17 26 -17 16 0 110 -99 100 -105 -15 -9 -12 -23 9 -44 20 -20 53 -81
44 -81 -12 0 -74 75 -79 96 -3 11 -23 32 -44 45 -22 13 -40 30 -40 36 0 7 -20
22 -45 33 -25 11 -45 24 -45 28 0 9 -70 37 -83 34 -15 -4 -47 19 -47 33 0 20
4 19 91 -11z m339 12 c0 -3 -4 -8 -10 -11 -5 -3 -10 -1 -10 4 0 6 5 11 10 11
6 0 10 -2 10 -4z m-960 -42 c0 -16 -16 -19 -25 -4 -8 13 4 32 16 25 5 -4 9
-13 9 -21z m391 17 c-8 -5 -20 -7 -28 -4 -21 8 -15 13 15 13 20 0 23 -3 13 -9z
m439 -11 c8 -5 12 -12 9 -15 -8 -8 -39 5 -39 16 0 11 11 11 30 -1z m-363 -146
c-3 -3 -12 -4 -19 -1 -8 3 -5 6 6 6 11 1 17 -2 13 -5z m33 -24 c0 -5 -4 -10
-10 -10 -5 0 -10 5 -10 10 0 6 5 10 10 10 6 0 10 -4 10 -10z m444 -146 c3 -8
2 -12 -4 -9 -6 3 -10 10 -10 16 0 14 7 11 14 -7z m-244 -50 c0 4 9 2 20 -4 20
-11 28 -50 11 -50 -16 0 -81 63 -75 72 3 5 15 2 25 -8 10 -9 19 -14 19 -10z
m-249 -15 c14 -7 18 -16 14 -30 -4 -11 -2 -19 4 -19 6 0 11 -5 11 -11 0 -17
27 -39 49 -39 15 0 21 -6 21 -23 0 -13 3 -27 7 -31 12 -11 14 -46 3 -46 -6 0
-26 6 -45 14 -18 8 -36 12 -39 9 -3 -4 -17 6 -32 22 -18 20 -24 34 -20 51 3
12 2 25 -2 28 -7 4 -9 69 -3 84 2 4 13 2 32 -9z m-1040 -115 c12 -26 31 -49
41 -52 11 -3 21 -17 25 -34 7 -34 23 -48 23 -19 0 12 5 21 11 21 7 0 8 -7 4
-17 -4 -10 -9 -43 -12 -74 l-6 -56 -66 0 c-48 1 -65 -2 -63 -11 1 -7 -5 -15
-13 -18 -8 -4 -15 -18 -16 -33 0 -23 -1 -24 -8 -6 -5 11 -4 25 1 32 5 6 6 27
3 46 -5 27 -3 37 10 44 14 8 15 16 7 46 -12 41 -1 48 30 20 16 -14 18 -14 18
-1 0 9 -7 28 -15 44 -15 29 -18 114 -5 114 5 0 18 -21 31 -46z m1480 -31 c13
-15 12 -15 -8 -4 -24 12 -29 21 -14 21 5 0 15 -7 22 -17z m-284 -9 c-3 -3 -12
-4 -19 -1 -8 3 -5 6 6 6 11 1 17 -2 13 -5z m-1726 -67 c-16 -16 -26 0 -10 19
9 11 15 12 17 4 2 -6 -1 -17 -7 -23z m1257 -10 c2 -12 -3 -17 -17 -17 -15 0
-21 6 -21 21 0 25 33 22 38 -4z m-838 -35 c0 -15 -2 -15 -10 -2 -13 20 -13 33
0 25 6 -3 10 -14 10 -23z m-364 -19 c-11 -11 -19 6 -11 24 8 17 8 17 12 0 3
-10 2 -21 -1 -24z m244 2 c7 -8 18 -15 25 -15 6 0 27 -19 45 -41 37 -46 21
-42 -34 9 -19 17 -40 32 -45 32 -5 0 -11 7 -15 15 -3 8 -2 15 3 15 5 0 14 -7
21 -15z m2270 -143 c0 -25 -1 -25 -15 -6 -19 25 -19 45 0 38 8 -4 15 -18 15
-32z m-2250 -14 c0 -13 -23 -5 -28 10 -2 7 2 10 12 6 9 -3 16 -11 16 -16z
m267 -10 c15 -7 34 -18 41 -25 11 -11 9 -13 -12 -13 -14 0 -26 5 -26 10 0 7
-13 8 -35 4 -27 -5 -35 -3 -35 8 0 30 22 35 67 16z m-115 -76 c-3 -9 -8 -10
-18 -1 -15 12 -19 61 -7 73 9 9 32 -55 25 -72z m-541 -9 c-16 -29 -24 8 -9 43
l12 29 4 -27 c2 -15 -1 -35 -7 -45z m1571 -46 c18 -23 15 -26 -61 -61 -55 -26
-93 -19 -54 9 17 13 17 14 0 33 -17 18 -17 21 -2 36 22 22 94 11 117 -17z
m-904 -55 c2 -12 -1 -22 -6 -22 -15 0 -34 28 -27 40 10 17 30 6 33 -18z m772
-92 c0 -5 -2 -10 -4 -10 -3 0 -8 5 -11 10 -3 6 -1 10 4 10 6 0 11 -4 11 -10z
m1197 -392 c-3 -8 -6 -5 -6 6 -1 11 2 17 5 13 3 -3 4 -12 1 -19z m-11 -65
c-10 -10 -19 5 -10 18 6 11 8 11 12 0 2 -7 1 -15 -2 -18z m-278 -67 c2 -21 1
-45 -3 -54 -10 -27 -25 6 -25 56 0 55 24 53 28 -2z m282 37 c0 -5 -5 -15 -10
-23 -8 -12 -10 -11 -10 8 0 12 5 22 10 22 6 0 10 -3 10 -7z m-2393 -35 c-3 -8
-6 -5 -6 6 -1 11 2 17 5 13 3 -3 4 -12 1 -19z m2317 -94 c-14 -49 -28 -114
-30 -144 -7 -90 -12 -124 -23 -153 -6 -16 -11 -39 -11 -53 0 -14 -7 -27 -15
-30 -9 -4 -14 -18 -14 -38 2 -47 -9 -116 -19 -129 -5 -7 -12 -30 -15 -52 -9
-70 -34 -158 -66 -235 -17 -41 -31 -80 -31 -86 0 -5 -9 -20 -20 -32 -11 -12
-19 -25 -18 -29 2 -8 -20 -80 -30 -97 -9 -16 -20 27 -16 59 3 17 10 53 16 81
17 81 4 85 -32 10 -32 -67 -34 -68 -66 -63 -19 3 -37 1 -42 -6 -12 -14 -28
-96 -39 -187 l-7 -65 -8 65 c-5 38 -4 77 2 94 5 15 8 32 5 36 -3 4 0 22 6 39
10 30 4 90 -8 78 -7 -8 -33 -118 -42 -182 -7 -46 -8 -48 -15 -22 -13 45 4 176
34 257 47 126 133 283 185 339 19 20 35 39 35 43 0 4 12 20 28 37 15 17 35 52
45 78 33 86 36 93 45 93 11 0 3 -58 -9 -66 -5 -3 -9 -10 -9 -15 0 -6 5 -7 10
-4 6 3 10 -3 10 -14 0 -12 -6 -21 -12 -21 -7 0 -28 -34 -47 -75 -19 -40 -38
-72 -43 -69 -4 3 -8 -5 -9 -18 -1 -33 -33 -83 -53 -82 -11 1 -16 -6 -16 -26 0
-15 -7 -30 -15 -33 -19 -8 -60 -72 -84 -133 -19 -50 -19 -52 -1 -47 10 3 21
17 25 31 4 15 10 29 14 32 4 3 17 22 30 43 13 21 30 37 41 37 11 0 26 14 36
33 9 17 23 44 31 60 18 33 53 55 53 33 0 -8 -4 -17 -10 -21 -5 -3 -13 -20 -19
-38 -5 -18 -12 -41 -17 -51 -7 -18 -5 -18 24 3 21 14 32 31 32 46 0 13 10 31
22 39 29 20 49 84 63 196 1 8 5 25 9 38 4 13 4 28 -1 35 -5 7 -10 22 -11 35
-1 19 2 21 13 12 12 -10 16 -9 19 1 10 32 13 99 5 99 -5 0 -9 -4 -9 -10 0 -5
-3 -9 -7 -9 -20 3 -26 -2 -13 -11 13 -8 12 -10 -2 -10 -21 0 -21 1 -8 34 7 18
17 26 34 26 13 0 27 8 31 18 12 30 15 91 5 97 -6 4 -10 -3 -10 -14 0 -12 -5
-21 -11 -21 -12 0 -6 25 22 87 11 23 19 45 19 49 0 10 54 94 58 90 1 -2 -9
-43 -24 -92z m-2277 -36 c-3 -8 -6 -5 -6 6 -1 11 2 17 5 13 3 -3 4 -12 1 -19z
m2060 -15 c-3 -10 -5 -4 -5 12 0 17 2 24 5 18 2 -7 2 -21 0 -30z m-2044 -32
c2 -10 1 -24 -3 -31 -5 -7 -9 0 -12 19 -5 34 7 43 15 12z m17 -87 c0 -13 -4
-24 -10 -24 -5 0 -10 14 -10 31 0 17 4 28 10 24 6 -3 10 -17 10 -31z m24 -99
c3 -8 1 -15 -4 -15 -6 0 -10 7 -10 15 0 8 2 15 4 15 2 0 6 -7 10 -15z m6 -52
c-1 -24 -2 -26 -11 -10 -5 9 -7 22 -4 27 10 17 15 11 15 -17z m240 -110 c0
-20 -24 -11 -28 10 -2 12 1 15 12 11 9 -3 16 -13 16 -21z m94 -29 c4 -10 1
-14 -6 -12 -15 5 -23 28 -10 28 5 0 13 -7 16 -16z m-63 -18 c1 -13 4 -32 14
-68 5 -18 3 -28 -4 -28 -6 0 -11 8 -11 18 0 9 -9 34 -20 55 -11 20 -20 39 -20
41 0 10 40 -7 41 -18z m1746 -106 c-6 -11 -15 -20 -19 -20 -12 0 -9 25 4 38
17 17 29 4 15 -18z m-1970 -12 c-3 -8 -6 -5 -6 6 -1 11 2 17 5 13 3 -3 4 -12
1 -19z m44 -233 c2 -76 8 -105 24 -99 7 3 16 1 20 -5 4 -7 -3 -11 -18 -11 -20
0 -26 7 -35 43 -13 52 -32 203 -31 243 0 48 39 -114 40 -171z m599 99 c8 -16
16 -35 16 -41 2 -28 5 -32 24 -38 18 -6 30 -45 13 -45 -16 0 -53 46 -53 66 0
13 -4 25 -9 28 -5 3 -14 20 -20 37 -14 40 6 35 29 -7z m123 -144 c8 -11 16
-17 20 -14 3 3 10 -3 16 -15 12 -21 -5 -43 -18 -24 -7 12 -51 28 -68 25 -16
-3 -16 3 -3 29 14 25 35 24 53 -1z m-38 -80 c3 -11 13 -20 22 -20 10 0 14 -6
10 -19 -2 -11 7 -31 24 -51 16 -18 29 -36 29 -40 0 -30 -59 -9 -90 32 -27 37
-38 118 -15 118 7 0 17 -9 20 -20z m-315 -85 c14 -14 19 -34 19 -61 -1 -21 2
-56 6 -76 5 -26 4 -38 -4 -38 -6 0 -13 12 -17 28 -3 15 -12 47 -19 72 -7 25
-16 74 -19 110 -4 56 -4 60 5 25 5 -21 18 -49 29 -60z m-322 46 c3 -16 -1 -22
-10 -19 -7 3 -15 15 -16 27 -3 16 1 22 10 19 7 -3 15 -15 16 -27z m16 -93 c14
-49 36 -204 51 -355 3 -34 2 -64 -3 -67 -5 -3 -12 18 -15 47 -17 166 -48 342
-68 379 -13 26 -11 48 6 48 9 0 20 -20 29 -52z m99 -44 c10 -27 24 -61 32 -76
13 -25 11 -38 -6 -38 -4 0 -11 15 -14 33 -4 17 -18 53 -31 79 -27 54 -29 61
-12 56 7 -3 20 -27 31 -54z m277 -10 c0 -19 -4 -34 -10 -34 -5 0 -10 18 -10
41 0 24 4 38 10 34 6 -3 10 -22 10 -41z m347 -19 c17 -10 34 -26 36 -36 4 -14
0 -16 -23 -9 -46 13 -70 30 -70 49 0 21 11 35 19 23 3 -5 20 -17 38 -27z
m-347 -76 c0 -5 -4 -9 -10 -9 -5 0 -10 7 -10 16 0 8 5 12 10 9 6 -3 10 -10 10
-16z m1756 -77 c-14 -14 -16 -14 -16 -1 0 20 23 44 29 28 2 -6 -4 -18 -13 -27z
m-1957 19 c7 -5 12 -14 9 -21 -2 -7 -10 -4 -22 9 -19 21 -12 28 13 12z m1392
-55 c2 -27 -3 -52 -11 -59 -10 -10 -11 -6 -6 22 3 18 6 47 6 64 0 48 10 26 11
-27z m-531 34 c0 -5 -7 -10 -16 -10 -8 0 -12 5 -9 10 3 6 10 10 16 10 5 0 9
-4 9 -10z m-677 -67 c-3 -24 -9 -41 -12 -39 -12 8 -12 69 1 77 17 11 17 9 11
-38z m1843 -64 c-16 -37 -20 -30 -10 20 4 19 10 29 16 23 5 -5 2 -23 -6 -43z
m-1860 -117 c-15 -15 -16 -12 -15 38 l0 55 16 -38 c14 -35 14 -40 -1 -55z
m1174 -11 c0 -25 -39 -74 -40 -49 0 22 21 68 32 68 4 0 8 -9 8 -19z m579 -95
c-9 -8 -10 -7 -5 7 3 10 7 28 7 40 2 16 3 14 6 -7 3 -16 -1 -34 -8 -40z
m-2037 12 c2 -24 -2 -54 -9 -68 -7 -14 -13 -34 -13 -45 0 -11 -12 -72 -26
-135 -14 -63 -27 -135 -29 -160 -2 -25 -8 -58 -14 -74 -11 -28 -12 -28 -32
-10 l-21 19 26 20 c16 13 26 30 25 45 -1 18 -3 20 -6 7 -2 -9 -8 -15 -13 -12
-7 5 -1 33 21 90 4 11 15 65 24 120 9 55 21 105 27 112 5 7 12 39 15 73 7 70
19 79 25 18z m199 -361 c-8 -8 -11 -5 -11 9 0 27 14 41 18 19 2 -9 -1 -22 -7
-28z m-214 11 c-3 -8 -6 -5 -6 6 -1 11 2 17 5 13 3 -3 4 -12 1 -19z m133 -27
c0 -22 -4 -43 -10 -46 -16 -10 -12 -25 6 -25 13 0 15 -7 11 -32 -10 -58 -47
-182 -56 -187 -5 -3 -11 -26 -13 -51 -5 -52 -65 -197 -76 -185 -3 3 0 15 6 28
34 71 85 277 97 392 12 119 16 145 26 145 5 0 9 -18 9 -39z m1687 -23 c-3 -7
-5 -2 -5 12 0 14 2 19 5 13 2 -7 2 -19 0 -25z m-1751 -35 c-10 -10 -19 5 -10
18 6 11 8 11 12 0 2 -7 1 -15 -2 -18z m1794 -65 c0 -37 -4 -58 -9 -52 -8 8 -3
114 5 114 2 0 4 -28 4 -62z m-1804 4 c-12 -11 -18 7 -10 30 l8 23 4 -23 c2
-13 1 -26 -2 -30z m2034 28 c0 -5 -4 -10 -10 -10 -5 0 -10 5 -10 10 0 6 5 10
10 10 6 0 10 -4 10 -10z m-288 -62 c-7 -7 -12 -8 -12 -2 0 14 12 26 19 19 2
-3 -1 -11 -7 -17z m-1790 -40 c-9 -9 -12 -7 -12 12 0 19 3 21 12 12 9 -9 9
-15 0 -24z m18 -86 c0 -10 -7 -27 -15 -38 -14 -19 -14 -19 -15 3 0 28 10 53
21 53 5 0 9 -8 9 -18z m1929 -34 c0 -35 -2 -39 -9 -21 -8 19 -3 63 6 63 2 0 4
-19 3 -42z m-2179 19 c0 -8 -9 -22 -20 -32 -19 -17 -19 -17 -7 14 12 32 27 42
27 18z m1458 -39 c-6 -18 -28 -21 -28 -4 0 9 7 16 16 16 9 0 14 -5 12 -12z
m59 -14 c-3 -3 -12 -4 -19 -1 -8 3 -5 6 6 6 11 1 17 -2 13 -5z m-1297 -28 c0
-14 -7 -31 -15 -40 -8 -8 -15 -20 -15 -26 0 -7 -8 -24 -19 -38 -10 -15 -31
-55 -46 -89 -30 -68 -48 -83 -35 -30 15 61 32 97 46 97 8 0 14 7 14 15 0 14
59 135 67 135 1 0 3 -11 3 -24z m1361 -8 c-5 -26 -12 -34 -34 -36 -35 -4 -35
16 1 45 36 30 41 29 33 -9z m809 4 c0 -10 -7 -19 -15 -19 -18 0 -19 9 -3 25
16 16 18 15 18 -6z m-2466 -17 c-4 -8 -10 -15 -15 -15 -5 0 -9 7 -9 15 0 8 7
15 15 15 9 0 12 -6 9 -15z m1541 5 c3 -5 -1 -10 -9 -10 -9 0 -16 5 -16 10 0 6
4 10 9 10 6 0 13 -4 16 -10z m605 -30 c0 -10 -4 -22 -10 -25 -6 -4 -10 7 -10
25 0 18 4 29 10 25 6 -3 10 -15 10 -25z m-370 -10 c0 -5 -7 -10 -16 -10 -8 0
-12 5 -9 10 3 6 10 10 16 10 5 0 9 -4 9 -10z m-222 -18 c2 -7 -3 -12 -12 -12
-9 0 -16 7 -16 16 0 17 22 14 28 -4z m-1002 -17 c3 -8 1 -27 -4 -42 l-10 -28
-1 28 c-1 16 -5 26 -11 22 -12 -7 -12 -3 -4 19 8 20 23 21 30 1z m1260 -27
c-21 -12 -42 4 -32 21 5 8 13 8 28 0 20 -11 20 -12 4 -21z m334 1 c0 -10 -4
-19 -10 -19 -5 0 -10 12 -10 26 0 14 4 23 10 19 6 -3 10 -15 10 -26z m-886
-14 c-4 -8 -8 -15 -10 -15 -2 0 -4 7 -4 15 0 8 4 15 10 15 5 0 7 -7 4 -15z
m-550 -20 c3 -10 -1 -15 -14 -15 -20 0 -33 13 -23 24 11 11 31 6 37 -9z m1680
-197 c-9 -94 -20 -164 -24 -157 -4 8 -3 50 1 94 4 44 11 116 14 160 4 44 9 87
12 95 15 38 14 -34 -3 -192z m-895 155 c-10 -21 -19 -43 -19 -50 0 -14 -16
-18 -23 -5 -6 9 42 92 53 92 4 0 -1 -17 -11 -37z m137 23 c3 -8 14 -16 26 -19
12 -4 18 -12 16 -23 -5 -28 -24 -27 -51 2 -22 23 -27 25 -39 13 -8 -8 -17 -22
-21 -32 -9 -24 -24 -14 -21 15 1 13 3 26 3 31 1 4 12 7 25 7 14 0 28 5 31 10
9 14 25 12 31 -4z m-1076 -23 c0 -37 -8 -46 -54 -62 -31 -11 -40 -11 -46 0
-11 17 11 52 24 39 19 -19 46 -11 46 13 0 13 3 27 7 30 14 14 23 6 23 -20z
m863 13 c3 -8 0 -20 -8 -26 -10 -8 -14 -8 -18 2 -10 29 15 52 26 24z m-92 -13
c8 -46 5 -53 -17 -53 -18 0 -24 5 -24 23 0 13 3 27 7 30 9 9 33 9 34 0z m616
-35 c-3 -8 -6 -5 -6 6 -1 11 2 17 5 13 3 -3 4 -12 1 -19z m-573 -57 c-6 -6
-24 19 -24 34 1 6 7 1 15 -9 8 -11 12 -22 9 -25z m159 25 c6 -16 -2 -28 -14
-20 -12 7 -11 34 0 34 5 0 11 -6 14 -14z m144 -38 c-3 -8 -6 -5 -6 6 -1 11 2
17 5 13 3 -3 4 -12 1 -19z m113 4 c0 -8 -37 -42 -45 -42 -10 0 -5 26 7 38 13
13 38 16 38 4z m-923 -27 c3 -9 3 -18 0 -21 -11 -11 -67 8 -67 22 0 20 59 19
67 -1z m542 -14 c20 -13 -5 -25 -51 -26 -35 0 -36 1 -21 17 17 19 49 23 72 9z
m92 -4 c-1 -12 -15 -9 -19 4 -3 6 1 10 8 8 6 -3 11 -8 11 -12z m-1059 -22 c0
-5 -5 -11 -11 -13 -6 -2 -11 4 -11 13 0 9 5 15 11 13 6 -2 11 -8 11 -13z
m1013 5 c3 -5 -1 -10 -9 -10 -9 0 -16 5 -16 10 0 6 4 10 9 10 6 0 13 -4 16
-10z m115 -8 c0 -5 -7 -17 -15 -28 -12 -15 -16 -16 -23 -6 -5 8 -17 12 -27 10
-10 -2 -20 2 -22 9 -4 10 17 17 70 22 9 0 17 -3 17 -7z m220 -8 c0 -8 -5 -12
-10 -9 -6 4 -8 11 -5 16 9 14 15 11 15 -7z m-580 -9 c0 -8 -4 -15 -10 -15 -5
0 -10 7 -10 15 0 8 5 15 10 15 6 0 10 -7 10 -15z m540 6 c0 -12 -40 -41 -57
-41 -16 0 -17 22 -1 38 14 14 58 16 58 3z m-1335 -40 c3 -5 1 -12 -5 -16 -5
-3 -10 1 -10 9 0 18 6 21 15 7z m885 -1 c0 -13 -48 -36 -56 -27 -4 3 -4 13 -1
22 7 17 57 21 57 5z m166 -1 c9 -15 -11 -33 -30 -26 -9 4 -13 13 -10 22 7 17
30 20 40 4z m60 -40 c8 -14 -18 -31 -30 -19 -9 9 0 30 14 30 5 0 12 -5 16 -11z
m208 2 c3 -5 0 -13 -7 -19 -14 -11 -57 2 -57 18 0 12 57 14 64 1z m88 -19 c4
10 8 9 20 -3 14 -13 12 -16 -19 -26 -36 -11 -47 -5 -37 21 5 12 10 14 19 6 9
-8 14 -7 17 2z m-602 -41 c0 -12 -20 -25 -27 -18 -7 7 6 27 18 27 5 0 9 -4 9
-9z m294 1 c3 -5 -10 -15 -29 -24 -19 -8 -33 -13 -31 -9 1 3 6 14 9 24 6 17
42 24 51 9z m212 -41 c-9 -14 -33 -14 -41 -1 -4 6 -1 18 6 26 11 13 14 13 27
0 8 -8 11 -19 8 -25z m-1253 9 c3 -11 2 -20 -3 -20 -4 0 -10 9 -13 20 -3 11
-2 20 3 20 4 0 10 -9 13 -20z m1337 -15 c0 -21 -19 -28 -36 -15 -12 11 -12 14
3 25 20 15 33 11 33 -10z m580 15 c0 -5 -7 -10 -15 -10 -8 0 -15 5 -15 10 0 6
7 10 15 10 8 0 15 -4 15 -10z m-535 -9 c3 -5 1 -12 -5 -16 -5 -3 -10 1 -10 9
0 18 6 21 15 7z m-102 -51 c8 0 8 -3 0 -11 -13 -13 -43 -5 -43 12 0 6 7 8 16
5 9 -3 21 -6 27 -6z"/>
<path d="M2352 4951 c2 -7 7 -12 11 -12 12 1 9 15 -3 20 -7 2 -11 -2 -8 -8z"/>
<path d="M3470 2246 c0 -14 5 -28 10 -31 6 -3 10 5 10 19 0 14 -4 28 -10 31
-6 3 -10 -5 -10 -19z"/>
<path d="M3425 2241 c-3 -5 -1 -12 5 -16 5 -3 10 1 10 9 0 18 -6 21 -15 7z"/>
<path d="M3391 2212 c-7 -13 -11 -28 -8 -35 2 -7 9 -2 16 11 7 13 11 28 8 35
-2 7 -9 2 -16 -11z"/>
<path d="M3347 2115 c-10 -7 -17 -21 -15 -30 2 -12 8 -8 21 14 20 35 20 36 -6
16z"/>
<path d="M5506 5527 c3 -10 9 -15 12 -12 3 3 0 11 -7 18 -10 9 -11 8 -5 -6z"/>
<path d="M2340 5501 c0 -11 25 -21 53 -21 12 0 17 4 12 9 -15 13 -65 23 -65
12z"/>
<path d="M1787 5464 c-9 -10 4 -34 18 -34 20 0 30 21 14 31 -17 10 -24 11 -32
3z"/>
<path d="M2830 5420 c0 -5 12 -10 28 -10 21 0 24 2 12 10 -20 13 -40 13 -40 0z"/>
<path d="M2968 5413 c7 -3 16 -2 19 1 4 3 -2 6 -13 5 -11 0 -14 -3 -6 -6z"/>
<path d="M3005 5400 c3 -5 11 -10 16 -10 6 0 7 5 4 10 -3 6 -11 10 -16 10 -6
0 -7 -4 -4 -10z"/>
<path d="M2866 5372 c-3 -6 -1 -14 5 -17 15 -10 25 3 12 16 -7 7 -13 7 -17 1z"/>
<path d="M2730 5360 c0 -5 7 -10 15 -10 8 0 15 5 15 10 0 6 -7 10 -15 10 -8 0
-15 -4 -15 -10z"/>
<path d="M3018 5329 c46 -22 77 -22 77 -1 0 9 -19 15 -60 17 l-60 4 43 -20z"/>
<path d="M3124 5309 c-8 -14 6 -28 34 -34 27 -5 28 6 4 28 -22 20 -28 21 -38
6z"/>
<path d="M2986 5253 c-3 -3 -3 -10 0 -14 7 -12 34 -11 34 0 0 11 -26 22 -34
14z"/>
<path d="M3192 5221 c4 -13 18 -16 19 -4 0 4 -5 9 -11 12 -7 2 -11 -2 -8 -8z"/>
<path d="M1666 5175 c-6 -17 17 -31 34 -20 5 3 10 13 10 21 0 19 -36 18 -44
-1z"/>
<path d="M3170 5140 c0 -5 9 -10 19 -10 11 0 23 5 26 10 4 6 -5 10 -19 10 -14
0 -26 -4 -26 -10z"/>
<path d="M5563 5143 c-13 -5 -19 -33 -7 -33 3 0 14 5 25 10 34 19 19 38 -18
23z"/>
<path d="M1890 5121 c0 -6 -12 -8 -30 -4 -23 4 -30 2 -28 -8 7 -33 52 -39 68
-10 7 13 7 22 0 26 -5 3 -10 2 -10 -4z"/>
<path d="M4795 5111 c3 -5 -9 -11 -27 -13 -35 -3 -55 -38 -22 -38 30 0 154 41
154 50 0 6 -25 10 -56 10 -32 0 -53 -4 -49 -9z"/>
<path d="M1605 5090 c-3 -5 1 -10 9 -10 8 0 18 5 21 10 3 6 -1 10 -9 10 -8 0
-18 -4 -21 -10z"/>
<path d="M1787 5083 c-12 -11 -8 -23 7 -23 8 0 16 7 20 15 5 15 -14 21 -27 8z"/>
<path d="M5255 5069 c-4 -6 -5 -13 -2 -16 7 -7 27 6 27 18 0 12 -17 12 -25 -2z"/>
<path d="M5577 5064 c-8 -8 1 -24 14 -24 5 0 9 7 9 15 0 15 -12 20 -23 9z"/>
<path d="M4656 5045 c-3 -8 -1 -15 4 -15 6 0 10 7 10 15 0 8 -2 15 -4 15 -2 0
-6 -7 -10 -15z"/>
<path d="M5161 5034 c0 -11 3 -14 6 -6 3 7 2 16 -1 19 -3 4 -6 -2 -5 -13z"/>
<path d="M1575 5033 c-37 -9 -38 -22 -1 -29 41 -7 51 -2 43 21 -7 16 -9 16
-42 8z"/>
<path d="M1735 5020 c-4 -6 5 -10 20 -10 15 0 24 4 20 10 -3 6 -12 10 -20 10
-8 0 -17 -4 -20 -10z"/>
<path d="M1570 4961 c0 -5 7 -11 15 -15 9 -3 15 0 15 9 0 8 -7 15 -15 15 -8 0
-15 -4 -15 -9z"/>
<path d="M1952 4918 c-11 -15 -22 -168 -12 -168 5 0 13 30 20 67 6 37 16 73
22 80 10 12 3 33 -11 33 -5 0 -13 -6 -19 -12z"/>
<path d="M1880 4834 c0 -21 4 -33 10 -29 6 3 10 19 10 36 0 16 -4 29 -10 29
-5 0 -10 -16 -10 -36z"/>
<path d="M1830 4766 c0 -14 5 -26 10 -26 6 0 10 9 10 19 0 11 -4 23 -10 26 -6
4 -10 -5 -10 -19z"/>
<path d="M1820 4716 c-14 -18 -3 -129 12 -120 5 4 7 15 4 27 -3 11 1 34 8 51
19 47 4 74 -24 42z"/>
<path d="M2420 4622 c0 -11 3 -12 13 -3 8 6 17 8 20 4 4 -3 7 -1 7 5 0 6 -9
10 -20 9 -11 -1 -20 -8 -20 -15z"/>
<path d="M2266 4613 c-9 -9 -7 -33 3 -33 12 0 22 28 12 34 -5 3 -11 3 -15 -1z"/>
<path d="M2420 4542 c0 -5 7 -15 15 -22 8 -7 15 -9 15 -6 0 4 -7 14 -15 22 -8
9 -15 11 -15 6z"/>
<path d="M1612 4500 c0 -14 2 -19 5 -12 2 6 2 18 0 25 -3 6 -5 1 -5 -13z"/>
<path d="M2370 4486 c0 -8 4 -17 9 -20 5 -4 7 3 4 14 -6 23 -13 26 -13 6z"/>
<path d="M1897 4470 c-7 -27 6 -73 22 -78 9 -3 11 9 9 44 -3 49 -22 70 -31 34z"/>
<path d="M2430 4440 c0 -5 5 -10 11 -10 5 0 7 5 4 10 -3 6 -8 10 -11 10 -2 0
-4 -4 -4 -10z"/>
<path d="M2250 4410 c0 -5 5 -10 10 -10 6 0 10 5 10 10 0 6 -4 10 -10 10 -5 0
-10 -4 -10 -10z"/>
<path d="M2097 4403 c-2 -5 -2 -14 -1 -20 1 -7 2 -20 3 -28 2 -25 28 -17 33 9
6 32 -22 63 -35 39z"/>
<path d="M1960 4382 c0 -30 18 -72 30 -72 7 0 8 6 2 16 -5 9 -7 24 -5 34 2 9
-3 22 -11 29 -14 12 -16 10 -16 -7z"/>
<path d="M3678 4393 c7 -3 16 -2 19 1 4 3 -2 6 -13 5 -11 0 -14 -3 -6 -6z"/>
<path d="M1406 4364 c-9 -24 -7 -56 3 -49 5 3 9 19 9 35 -1 34 -3 37 -12 14z"/>
<path d="M1365 4360 c-3 -5 -1 -10 4 -10 6 0 11 5 11 10 0 6 -2 10 -4 10 -3 0
-8 -4 -11 -10z"/>
<path d="M1305 4330 c-3 -11 -10 -20 -15 -20 -12 0 -43 -60 -36 -67 3 -3 17 2
31 11 25 17 45 53 45 82 0 21 -18 17 -25 -6z"/>
<path d="M2410 4325 c0 -9 5 -15 11 -13 6 2 11 8 11 13 0 5 -5 11 -11 13 -6 2
-11 -4 -11 -13z"/>
<path d="M2041 4274 c0 -11 3 -14 6 -6 3 7 2 16 -1 19 -3 4 -6 -2 -5 -13z"/>
<path d="M1135 4241 c3 -5 -1 -48 -9 -95 -16 -86 -23 -212 -14 -222 6 -5 27
148 35 254 4 52 2 72 -6 72 -7 0 -10 -4 -6 -9z"/>
<path d="M2268 4143 c7 -3 16 -2 19 1 4 3 -2 6 -13 5 -11 0 -14 -3 -6 -6z"/>
<path d="M2325 4110 c-3 -5 1 -10 10 -10 9 0 13 5 10 10 -3 6 -8 10 -10 10 -2
0 -7 -4 -10 -10z"/>
<path d="M2905 4104 c-18 -14 -18 -14 1 -14 10 0 25 4 32 9 11 7 11 9 0 13 -8
3 -22 0 -33 -8z"/>
<path d="M3940 3909 c0 -11 5 -17 10 -14 6 3 10 13 10 21 0 8 -4 14 -10 14 -5
0 -10 -9 -10 -21z"/>
<path d="M3983 3845 c3 -38 13 -97 21 -130 9 -32 16 -70 16 -83 0 -13 4 -20
10 -17 13 8 13 78 1 91 -5 5 -17 52 -26 104 -9 52 -19 97 -22 100 -3 3 -3 -26
0 -65z"/>
<path d="M1890 3675 c0 -8 9 -15 20 -15 24 0 27 15 4 24 -22 9 -24 8 -24 -9z"/>
<path d="M1192 3640 c0 -19 2 -27 5 -17 2 9 2 25 0 35 -3 9 -5 1 -5 -18z"/>
<path d="M1858 3663 c7 -3 16 -2 19 1 4 3 -2 6 -13 5 -11 0 -14 -3 -6 -6z"/>
<path d="M1970 3661 c0 -6 -18 -16 -40 -22 -22 -7 -40 -16 -40 -21 0 -5 8 -7
18 -4 9 2 32 7 50 11 31 6 43 27 22 40 -5 3 -10 2 -10 -4z"/>
<path d="M3970 3640 c0 -5 5 -10 11 -10 5 0 7 5 4 10 -3 6 -8 10 -11 10 -2 0
-4 -4 -4 -10z"/>
<path d="M3281 3534 c0 -11 3 -14 6 -6 3 7 2 16 -1 19 -3 4 -6 -2 -5 -13z"/>
<path d="M4030 3457 c0 -31 5 -57 10 -57 17 0 16 87 -1 105 -5 5 -9 -13 -9
-48z"/>
<path d="M1977 3423 c-6 -16 -17 -32 -24 -36 -7 -4 -13 -15 -13 -23 0 -8 -10
-28 -22 -44 -27 -37 -30 -69 -10 -92 19 -22 42 -23 42 -3 0 9 7 29 15 45 9 16
17 42 19 57 2 16 7 49 11 76 8 53 1 61 -18 20z"/>
<path d="M3300 3440 c0 -5 -7 -10 -15 -10 -21 0 -19 -20 3 -21 9 0 27 -2 40
-5 23 -4 23 -4 5 21 -19 25 -33 32 -33 15z"/>
<path d="M2420 3415 c0 -8 4 -15 10 -15 5 0 7 7 4 15 -4 8 -8 15 -10 15 -2 0
-4 -7 -4 -15z"/>
<path d="M2440 3380 c-11 -7 -12 -13 -2 -35 13 -28 8 -47 -11 -44 -7 1 -20 -2
-31 -6 -24 -11 -150 30 -141 45 8 12 -24 21 -51 14 -28 -7 -31 -19 -8 -28 13
-5 14 -9 4 -21 -19 -23 -2 -35 49 -35 26 0 51 -4 57 -9 15 -15 139 -18 130 -3
-2 4 -1 14 3 21 7 10 13 9 30 -5 11 -10 21 -24 21 -31 0 -6 9 -15 21 -18 15
-5 17 -10 9 -20 -8 -10 -6 -22 9 -49 12 -20 18 -36 16 -36 -9 0 23 -56 39 -69
24 -20 19 -31 -11 -31 -21 0 -24 -3 -13 -10 11 -7 9 -11 -13 -19 -22 -9 -42
-5 -109 20 -149 55 -162 58 -273 60 -119 3 -141 -3 -169 -46 -17 -25 -19 -26
-36 -10 -10 9 -23 14 -28 11 -5 -3 -8 13 -6 39 3 58 -12 70 -57 46 -27 -15
-33 -24 -31 -45 1 -14 0 -26 -3 -26 -11 0 -35 28 -35 40 0 6 -4 9 -9 5 -10 -6
0 -51 18 -82 10 -17 10 -16 11 5 0 12 4 22 8 22 11 0 42 -34 42 -45 0 -4 10
-17 23 -29 21 -19 34 -22 108 -21 46 1 129 -4 184 -10 55 -7 137 -10 183 -7
76 4 82 3 75 -13 -5 -15 -3 -17 13 -11 18 8 65 21 112 33 16 4 22 1 22 -11 0
-9 6 -17 13 -17 6 -1 18 -2 25 -3 7 0 17 -8 22 -16 7 -11 10 -5 10 23 0 34 3
38 30 44 31 6 35 17 24 61 -4 13 -14 22 -25 22 -11 0 -19 6 -19 13 0 6 -21 35
-46 62 -26 28 -58 68 -73 90 -14 22 -30 43 -35 46 -5 4 -6 11 -2 17 3 5 -1 12
-9 16 -8 3 -15 13 -15 23 -1 10 -9 35 -18 55 -13 27 -21 35 -32 28z"/>
<path d="M2027 3354 c-25 -26 43 -124 87 -124 10 0 29 -9 43 -20 29 -22 79
-27 86 -7 7 22 -5 47 -23 47 -18 0 -50 37 -63 73 -5 14 -13 17 -29 11 -13 -3
-24 -10 -26 -15 -4 -10 -42 10 -57 29 -6 7 -14 10 -18 6z"/>
<path d="M3246 3184 c-4 -9 -4 -19 -1 -22 2 -3 7 3 11 12 4 9 4 19 1 22 -2 3
-7 -3 -11 -12z"/>
<path d="M3954 3053 c-13 -64 -7 -180 8 -189 4 -3 8 47 8 110 0 64 -2 116 -5
116 -2 0 -7 -17 -11 -37z"/>
<path d="M3210 3035 c0 -10 10 -15 27 -15 26 0 26 1 7 15 -25 19 -34 19 -34 0z"/>
<path d="M3195 2950 c3 -5 8 -10 11 -10 2 0 4 5 4 10 0 6 -5 10 -11 10 -5 0
-7 -4 -4 -10z"/>
<path d="M3824 2928 c-4 -6 -9 -45 -11 -87 -3 -58 -2 -73 7 -64 12 11 27 163
16 163 -2 0 -8 -5 -12 -12z"/>
<path d="M1171 2904 c0 -11 3 -14 6 -6 3 7 2 16 -1 19 -3 4 -6 -2 -5 -13z"/>
<path d="M2344 2878 c-3 -5 -12 -7 -20 -4 -7 3 -16 1 -19 -4 -4 -6 -21 -10
-40 -10 -19 0 -37 -5 -40 -10 -9 -14 -103 -2 -133 17 -36 22 -46 6 -21 -35 11
-21 27 -40 34 -45 9 -5 12 -19 8 -42 -5 -32 -3 -35 18 -36 13 0 54 -2 92 -4
38 -2 67 0 67 6 0 12 33 12 47 -2 7 -7 12 -1 17 21 7 39 2 50 -27 51 -17 1
-18 2 -4 6 9 2 17 8 17 12 0 17 37 49 60 53 14 1 25 7 25 13 0 13 -74 25 -81
13z"/>
<path d="M2690 2844 c0 -8 5 -12 10 -9 6 4 8 11 5 16 -9 14 -15 11 -15 -7z"/>
<path d="M2736 2775 c25 -19 40 -19 20 0 -8 8 -20 15 -27 15 -7 0 -4 -6 7 -15z"/>
<path d="M1153 2743 c-10 -43 -6 -83 8 -83 5 0 9 27 9 60 0 33 -2 60 -4 60 -2
0 -8 -17 -13 -37z"/>
<path d="M3915 2658 c-4 -29 -11 -57 -15 -63 -12 -16 -18 -65 -9 -65 5 0 9 7
9 15 0 8 10 44 22 80 15 46 18 69 11 76 -8 8 -13 -5 -18 -43z"/>
<path d="M1161 2594 c0 -11 3 -14 6 -6 3 7 2 16 -1 19 -3 4 -6 -2 -5 -13z"/>
<path d="M1160 2523 c0 -10 4 -14 8 -8 4 6 11 13 16 18 5 4 2 7 -7 7 -10 0
-17 -8 -17 -17z"/>
<path d="M1161 2461 c-7 -5 -9 -11 -5 -14 5 -3 15 1 22 9 14 16 5 18 -17 5z"/>
<path d="M1492 2445 c0 -16 2 -22 5 -12 2 9 2 23 0 30 -3 6 -5 -1 -5 -18z"/>
<path d="M1155 2410 c3 -5 8 -10 11 -10 2 0 4 5 4 10 0 6 -5 10 -11 10 -5 0
-7 -4 -4 -10z"/>
<path d="M1166 2328 c3 -4 9 -8 15 -8 5 0 9 4 9 8 0 5 -7 9 -15 9 -8 0 -12 -4
-9 -9z"/>
<path d="M3961 2288 c0 -9 -4 -25 -7 -35 -5 -14 -4 -15 5 -7 7 7 11 22 8 35
-2 13 -5 16 -6 7z"/>
<path d="M3713 2263 c-15 -32 -17 -62 -4 -47 9 9 26 74 19 74 -2 0 -9 -12 -15
-27z"/>
<path d="M3811 2254 c0 -11 3 -14 6 -6 3 7 2 16 -1 19 -3 4 -6 -2 -5 -13z"/>
<path d="M3759 2245 c-14 -22 -21 -75 -9 -75 6 0 13 6 16 14 7 19 1 74 -7 61z"/>
<path d="M1146 2214 c-11 -28 -6 -34 14 -22 11 7 20 18 20 25 0 18 -27 16 -34
-3z"/>
<path d="M3893 2203 c-7 -15 -13 -33 -13 -40 0 -8 -7 -25 -16 -38 -9 -14 -14
-31 -11 -38 3 -7 -1 -21 -9 -32 -8 -10 -14 -30 -14 -44 1 -20 8 -11 30 37 16
34 31 74 33 90 3 15 10 40 16 55 13 33 13 37 4 37 -5 0 -14 -12 -20 -27z"/>
<path d="M3672 2140 c-13 -28 -22 -61 -19 -73 3 -20 4 -20 17 8 18 41 38 115
31 115 -3 0 -17 -23 -29 -50z"/>
<path d="M3730 2131 c0 -25 6 -27 13 -6 4 8 2 17 -3 20 -6 4 -10 -3 -10 -14z"/>
<path d="M3780 2115 c-6 -15 -13 -32 -16 -36 -3 -5 1 -9 8 -9 18 0 41 51 28
64 -6 6 -13 -1 -20 -19z"/>
<path d="M3707 2057 c-8 -12 -23 -47 -32 -77 -21 -66 -53 -136 -78 -170 -22
-30 -89 -172 -83 -177 2 -2 14 13 27 34 13 21 29 42 36 46 7 4 13 12 13 18 0
9 49 89 61 99 9 7 49 127 49 146 0 8 7 22 15 30 13 13 22 74 11 74 -2 0 -10
-10 -19 -23z"/>
<path d="M4038 2050 c-7 -24 -3 -38 8 -28 3 4 4 17 2 30 l-3 23 -7 -25z"/>
<path d="M3757 2023 c-4 -3 -7 -11 -7 -17 0 -6 5 -5 12 2 6 6 9 14 7 17 -3 3
-9 2 -12 -2z"/>
<path d="M3963 1990 c-11 -17 -8 -30 8 -30 9 0 19 39 10 44 -4 3 -12 -4 -18
-14z"/>
<path d="M3730 1970 c0 -32 1 -33 17 -17 16 16 16 18 0 34 -16 16 -17 15 -17
-17z"/>
<path d="M1270 1972 c0 -10 -5 -23 -12 -30 -9 -9 -7 -12 9 -12 27 0 34 10 26
38 -7 27 -23 29 -23 4z"/>
<path d="M1200 1970 c0 -5 5 -10 10 -10 6 0 10 5 10 10 0 6 -4 10 -10 10 -5 0
-10 -4 -10 -10z"/>
<path d="M3950 1905 c-7 -9 -8 -15 -2 -15 5 0 12 7 16 15 3 8 4 15 2 15 -2 0
-9 -7 -16 -15z"/>
<path d="M1425 1705 c19 -103 21 -124 14 -119 -5 3 -9 -13 -9 -36 0 -23 3 -39
8 -37 4 3 8 -18 10 -46 3 -54 15 -70 45 -61 16 5 17 1 11 -33 -8 -47 -14 -55
-14 -20 0 17 -5 27 -15 27 -11 0 -13 -11 -9 -52 8 -74 11 -80 34 -73 23 7 27
-13 9 -47 -6 -12 -11 -39 -11 -62 1 -23 -6 -48 -14 -57 -13 -15 -13 -17 5 -22
35 -9 46 42 46 208 0 127 -3 154 -17 175 -10 13 -18 40 -18 60 0 38 -7 65 -39
149 -25 65 -44 90 -36 46z m62 -427 c-3 -8 -6 -5 -6 6 -1 11 2 17 5 13 3 -3 4
-12 1 -19z"/>
<path d="M4064 1692 c-6 -4 -14 -29 -18 -57 -5 -42 -4 -47 8 -35 10 11 31 101
23 100 -1 0 -7 -4 -13 -8z"/>
<path d="M4278 1684 c-8 -13 9 -54 22 -54 5 0 10 -9 10 -20 0 -11 -5 -20 -12
-20 -7 0 -5 -5 4 -12 23 -18 68 -107 68 -134 0 -13 4 -24 9 -24 15 0 23 19 14
33 -4 6 -6 20 -5 29 2 9 -4 30 -12 47 -9 16 -16 41 -16 55 0 14 -11 34 -28 48
-16 13 -33 32 -39 42 -6 10 -13 15 -15 10z"/>
<path d="M1117 1643 c-34 -5 -44 -26 -27 -59 18 -32 7 -41 -19 -15 -29 29 -72
28 -68 0 2 -18 -4 -21 -40 -23 -27 0 -45 4 -48 12 -3 7 -9 10 -15 7 -15 -10
-12 -52 5 -59 8 -3 15 -13 15 -22 0 -11 -5 -14 -16 -10 -9 3 -19 6 -24 6 -4 0
-11 11 -14 25 -4 14 -13 26 -21 27 -8 0 -19 1 -23 2 -5 1 -32 -28 -61 -62 -59
-71 -71 -116 -36 -136 11 -6 22 -12 24 -13 2 -2 -2 -10 -9 -18 -12 -14 -16
-13 -36 10 l-23 27 -15 -49 c-24 -78 -78 -227 -86 -238 -17 -24 -59 -144 -65
-190 -4 -28 -12 -53 -16 -56 -14 -8 -59 -173 -50 -179 5 -3 9 -18 10 -35 0
-16 3 -55 6 -85 4 -30 2 -73 -3 -95 -10 -38 -10 -36 -13 35 -1 41 -3 87 -3
102 -1 15 -7 33 -14 40 -7 7 -12 10 -12 8 -1 -13 -55 -153 -119 -308 -43 -103
-69 -181 -66 -192 4 -12 -3 -27 -20 -44 -14 -14 -25 -32 -25 -41 0 -13 43 -15
373 -15 l373 0 11 33 c7 17 17 61 23 97 7 36 18 80 26 98 8 18 12 38 8 43 -3
5 1 21 10 34 9 13 16 36 16 49 0 14 10 64 22 111 12 47 18 88 15 91 -12 12
-34 -16 -40 -51 -3 -19 -17 -61 -30 -92 -14 -32 -30 -72 -37 -89 -17 -47 -90
-75 -90 -34 0 11 5 20 10 20 6 0 10 11 10 24 0 37 18 76 35 76 19 0 19 9 -1
31 -13 14 -13 21 -3 41 7 12 13 32 15 43 2 18 34 140 68 260 6 22 19 52 29 67
10 14 17 32 16 40 -6 28 13 97 32 117 l20 21 -28 0 c-20 0 -24 3 -14 9 9 6 10
11 2 15 -21 13 -12 36 14 36 14 0 25 5 25 10 0 6 -7 10 -16 10 -12 0 -15 6
-11 23 3 12 9 39 12 60 6 31 11 37 26 32 14 -5 28 3 49 25 33 35 31 65 -4 56
-16 -4 -22 -1 -23 13 -1 16 4 18 36 14 23 -3 41 -1 45 6 5 7 -5 11 -28 11 -20
0 -36 4 -36 9 0 15 -54 -17 -62 -36 -14 -36 -9 -45 17 -39 30 8 34 -10 5 -19
-31 -10 -68 -48 -75 -77 -4 -15 -15 -34 -26 -44 -10 -9 -19 -27 -19 -40 0 -28
-16 -40 -24 -19 -4 11 -13 14 -30 9 -19 -4 -32 1 -55 25 -34 35 -39 51 -15 51
8 0 13 -4 9 -9 -3 -5 5 -11 17 -13 14 -2 25 -13 29 -28 4 -14 7 -20 8 -13 1 7
8 10 18 6 12 -5 15 -2 10 10 -3 9 -2 19 4 23 7 4 6 10 -1 19 -8 9 -8 15 0 20
5 3 10 1 10 -4 0 -6 9 -11 21 -11 15 0 19 5 15 18 -4 11 6 30 27 52 27 30 31
42 29 75 -2 25 -6 34 -12 26 -8 -14 -85 -19 -97 -8 -3 4 0 13 7 22 9 11 22 14
46 9 26 -5 35 -2 40 10 4 10 18 16 40 16 27 0 34 4 34 19 0 17 31 36 54 32 5
-1 6 8 3 20 -4 15 0 23 14 26 12 3 19 14 19 28 0 12 7 28 15 35 20 17 19 28
-7 67 -23 33 -33 36 -101 26z m-147 -182 c0 -5 -11 -11 -25 -13 -14 -3 -25 -2
-25 3 0 4 10 10 23 12 12 2 23 5 25 6 1 0 2 -3 2 -8z m-112 -48 c-2 -10 -13
-19 -25 -21 -22 -3 -26 -25 -24 -124 0 -15 -4 -30 -9 -33 -6 -4 -10 5 -10 19
0 13 -4 36 -10 50 -6 17 -6 27 1 32 6 3 8 17 5 30 -10 37 10 64 45 64 24 0 30
-4 27 -17z m52 -77 c-1 -23 -29 -48 -52 -44 -33 4 -33 30 -1 49 30 17 53 15
53 -5z m100 -56 c0 -5 -14 -10 -31 -10 -17 0 -28 4 -24 10 3 6 17 10 31 10 13
0 24 -4 24 -10z m-22 -42 c18 -18 15 -28 -8 -28 -11 0 -20 2 -20 4 0 2 -3 11
-6 20 -7 19 16 22 34 4z m-162 -99 c1 -31 -6 -49 -17 -49 -5 0 -9 18 -9 41 0
44 24 52 26 8z m-142 -25 c9 -22 8 -24 -9 -24 -8 0 -15 9 -15 20 0 24 15 27
24 4z m250 -56 c10 -39 8 -54 -6 -40 -18 18 -28 15 -28 -8 0 -13 -7 -20 -19
-20 -28 0 -35 17 -11 23 11 3 25 19 31 36 13 37 24 40 33 9z m46 -18 c0 -5 -5
-10 -11 -10 -5 0 -7 5 -4 10 3 6 8 10 11 10 2 0 4 -4 4 -10z m-329 -33 c-8 -8
-11 -7 -11 4 0 20 13 34 18 19 3 -7 -1 -17 -7 -23z m325 -14 c-10 -10 -19 5
-10 18 6 11 8 11 12 0 2 -7 1 -15 -2 -18z m-236 -13 c0 -5 -4 -10 -10 -10 -5
0 -10 5 -10 10 0 6 5 10 10 10 6 0 10 -4 10 -10z m190 -15 c0 -8 -4 -15 -10
-15 -5 0 -10 7 -10 15 0 8 5 15 10 15 6 0 10 -7 10 -15z m-250 -29 c0 -13 -7
-26 -15 -30 -11 -4 -15 1 -15 18 0 12 3 26 7 29 13 14 23 6 23 -17z m160 5 c0
-11 -4 -23 -10 -26 -6 -4 -10 5 -10 19 0 14 5 26 10 26 6 0 10 -9 10 -19z
m-120 -40 c0 -5 -7 -11 -15 -15 -9 -3 -15 0 -15 9 0 8 7 15 15 15 8 0 15 -4
15 -9z m220 -12 c0 -6 -5 -20 -11 -32 -9 -16 -9 -22 0 -25 16 -5 13 -32 -4
-32 -8 0 -15 -3 -16 -7 -3 -30 -11 -58 -20 -69 -8 -10 -5 -15 15 -20 29 -7 32
-14 14 -32 -6 -6 -11 -34 -10 -61 1 -52 -12 -76 -21 -41 -7 27 -24 25 -33 -2
-4 -13 -17 -36 -30 -51 -13 -16 -24 -35 -24 -43 0 -8 -10 -14 -22 -14 -17 0
-20 3 -9 9 9 6 12 18 8 32 -5 17 4 32 39 67 24 25 44 55 44 67 0 11 5 26 12
33 9 9 8 15 -4 24 -15 12 -15 19 3 88 11 41 27 85 35 98 15 23 34 30 34 11z
m60 -18 c0 -16 -6 -33 -13 -39 -10 -8 -12 -2 -9 29 5 45 22 53 22 10z m-240
-31 c0 -13 -30 -13 -50 0 -11 7 -7 10 18 10 17 0 32 -4 32 -10z m78 -30 c-14
-22 -24 -19 -15 5 4 8 11 15 17 15 6 0 6 -7 -2 -20z m-208 -5 c0 -8 -9 -15
-20 -15 -13 0 -18 5 -14 15 4 8 12 15 20 15 8 0 14 -7 14 -15z m41 -27 c2 -22
-2 -43 -12 -52 -5 -6 -9 4 -9 27 0 33 18 55 21 25z m-87 -36 c2 -4 1 -14 -3
-21 -6 -9 -10 -7 -14 8 -5 20 7 29 17 13z m376 -17 c0 -8 -9 -15 -20 -15 -13
0 -18 5 -14 15 4 8 12 15 20 15 8 0 14 -7 14 -15z m-253 -36 c-3 -11 0 -19 8
-19 7 0 15 9 18 21 9 34 25 13 18 -23 -7 -35 -37 -50 -52 -26 -13 20 -11 81 2
72 6 -3 9 -15 6 -25z m-146 -10 c10 -6 8 -9 -8 -9 -17 0 -23 6 -23 23 0 16 3
18 9 8 5 -7 15 -17 22 -22z m149 -83 c0 -16 -18 -31 -27 -22 -8 8 5 36 17 36
5 0 10 -6 10 -14z m100 5 c0 -6 -4 -13 -10 -16 -5 -3 -10 1 -10 9 0 9 5 16 10
16 6 0 10 -4 10 -9z m-280 -20 c7 -13 7 -22 0 -26 -15 -9 -30 4 -30 26 0 25
16 25 30 0z m158 -60 c3 -16 -1 -22 -10 -19 -7 3 -15 15 -16 27 -3 16 1 22 10
19 7 -3 15 -15 16 -27z m-129 -87 c-9 -47 -8 -59 4 -71 12 -13 21 -13 52 -3
42 14 50 10 40 -19 -5 -16 -12 -20 -30 -15 -13 3 -33 0 -45 -6 -19 -10 -25 -8
-46 17 -19 22 -23 34 -18 58 4 17 8 53 9 80 1 28 3 51 3 53 1 1 11 -7 22 -18
17 -17 18 -25 9 -76z m74 36 c-5 -20 -23 -26 -36 -13 -9 8 23 44 33 38 5 -3 6
-14 3 -25z m-136 -12 c-3 -7 -5 -2 -5 12 0 14 2 19 5 13 2 -7 2 -19 0 -25z
m254 -69 c-5 -38 -6 -40 -9 -14 -2 16 -8 33 -14 36 -6 4 -7 16 -3 30 13 38 32
-1 26 -52z m-301 -34 c0 -8 -4 -15 -10 -15 -5 0 -7 7 -4 15 4 8 8 15 10 15 2
0 4 -7 4 -15z m43 -60 c-3 -8 -9 -15 -14 -15 -10 0 -12 24 -3 33 11 11 24 -3
17 -18z m-57 -20 c-8 -23 -25 -9 -19 16 4 13 9 17 16 10 5 -5 7 -17 3 -26z
m215 23 c1 -7 1 -21 0 -30 -2 -11 5 -18 15 -18 10 0 15 3 11 6 -3 4 0 13 8 20
18 19 85 19 85 0 0 -16 -21 -26 -54 -26 -13 0 -25 -3 -29 -6 -9 -10 4 -34 19
-34 17 0 19 -17 2 -22 -22 -8 -68 5 -68 18 0 8 -5 23 -11 33 -13 20 -5 71 11
71 6 0 11 -6 11 -12z m-85 -35 c-10 -10 -19 5 -10 18 6 11 8 11 12 0 2 -7 1
-15 -2 -18z m-38 -25 c-2 -6 -10 -14 -16 -16 -7 -2 -10 2 -6 12 7 18 28 22 22
4z m368 -3 c-3 -24 -11 -25 -24 -5 -10 17 -10 20 7 20 11 0 18 -6 17 -15z
m-526 -24 c0 -11 -4 -22 -9 -25 -11 -7 -20 14 -13 32 7 19 22 14 22 -7z m520
-20 c0 -14 -18 -23 -31 -15 -8 4 -7 9 2 15 18 11 29 11 29 0z m-205 -31 c-3
-5 -12 -10 -18 -10 -7 0 -20 -14 -30 -31 -24 -43 -36 -27 -12 16 13 25 25 35
42 35 14 0 21 -4 18 -10z m35 -35 c0 -14 -4 -25 -10 -25 -5 0 -10 11 -10 25 0
14 5 25 10 25 6 0 10 -11 10 -25z"/>
<path d="M3487 1613 c-11 -10 -8 -43 3 -43 6 0 10 11 10 25 0 26 -2 29 -13 18z"/>
<path d="M1320 1568 c0 -19 2 -20 10 -8 13 19 13 30 0 30 -5 0 -10 -10 -10
-22z"/>
<path d="M4041 1553 c0 -6 -4 -20 -7 -30 -5 -14 -4 -15 5 -7 7 7 11 20 8 30
-3 11 -5 14 -6 7z"/>
<path d="M1241 1527 c-8 -10 -7 -18 2 -30 11 -16 13 -16 24 2 16 25 -7 50 -26
28z"/>
<path d="M3436 1514 c-9 -25 -7 -69 3 -58 14 14 24 74 13 74 -5 0 -13 -7 -16
-16z"/>
<path d="M3516 1514 c-4 -9 -4 -19 -1 -22 2 -3 7 3 11 12 4 9 4 19 1 22 -2 3
-7 -3 -11 -12z"/>
<path d="M3568 1446 c-10 -27 -15 -52 -12 -57 3 -5 1 -9 -3 -9 -13 0 -34 -38
-24 -44 15 -10 62 93 59 127 -3 31 -3 31 -20 -17z"/>
<path d="M4016 1444 c-4 -9 -4 -19 -1 -22 2 -3 7 3 11 12 4 9 4 19 1 22 -2 3
-7 -3 -11 -12z"/>
<path d="M3410 1433 c0 -10 -6 -27 -13 -38 -16 -23 -47 -111 -47 -132 0 -27
20 -2 31 40 7 23 16 47 20 52 14 20 27 85 18 91 -5 3 -9 -3 -9 -13z"/>
<path d="M3457 1433 c-10 -9 -8 -43 2 -43 5 0 11 11 13 25 5 24 -2 32 -15 18z"/>
<path d="M4390 1402 c0 -5 9 -17 20 -27 20 -18 20 -17 20 8 0 20 -5 27 -20 27
-11 0 -20 -4 -20 -8z"/>
<path d="M3412 1260 c-12 -19 -22 -41 -22 -47 0 -7 -4 -13 -10 -13 -5 0 -10
-7 -10 -15 0 -8 5 -15 10 -15 6 0 10 6 10 14 0 8 5 16 12 18 6 2 12 14 13 27
1 12 7 26 14 31 8 4 11 14 9 21 -3 9 -13 1 -26 -21z"/>
<path d="M1187 1215 c-4 -8 -2 -17 3 -20 6 -4 10 3 10 14 0 25 -6 27 -13 6z"/>
<path d="M1286 1211 c-4 -7 -5 -15 -2 -18 9 -9 19 4 14 18 -4 11 -6 11 -12 0z"/>
<path d="M1145 1199 c-9 -14 -2 -20 14 -10 8 6 9 11 3 15 -6 3 -14 1 -17 -5z"/>
<path d="M1095 1170 c-10 -16 5 -54 17 -42 6 6 17 8 24 5 20 -7 17 17 -3 33
-22 16 -30 17 -38 4z"/>
<path d="M3342 1127 c-16 -31 -32 -107 -22 -107 11 0 50 81 50 103 0 26 -16
28 -28 4z"/>
<path d="M1357 1048 c-24 -81 -32 -117 -42 -188 -1 -8 -6 -23 -10 -33 -4 -10
-5 -20 -2 -23 13 -13 50 95 86 249 28 120 4 116 -32 -5z"/>
<path d="M3207 1061 c-6 -24 2 -61 13 -61 14 0 17 37 5 60 -12 22 -12 22 -18
1z"/>
<path d="M4450 1058 c0 -7 5 -20 10 -28 12 -19 35 2 27 24 -7 19 -37 21 -37 4z"/>
<path d="M3245 982 c-7 -23 4 -54 16 -46 12 7 12 51 0 59 -5 3 -12 -3 -16 -13z"/>
<path d="M3346 914 c-8 -22 4 -40 15 -23 11 18 11 39 0 39 -5 0 -12 -7 -15
-16z"/>
<path d="M3302 863 c-21 -33 -22 -53 -2 -53 9 0 35 79 28 85 -2 1 -13 -13 -26
-32z"/>
<path d="M2006 781 c-4 -7 -5 -15 -2 -18 9 -9 19 4 14 18 -4 11 -6 11 -12 0z"/>
<path d="M3602 740 c0 -19 2 -27 5 -17 2 9 2 25 0 35 -3 9 -5 1 -5 -18z"/>
<path d="M1990 734 c0 -8 5 -12 10 -9 6 3 10 10 10 16 0 5 -4 9 -10 9 -5 0
-10 -7 -10 -16z"/>
<path d="M3300 620 c0 -5 7 -10 16 -10 8 0 12 5 9 10 -3 6 -10 10 -16 10 -5 0
-9 -4 -9 -10z"/>
<path d="M3939 415 c-1 -22 -3 -92 -4 -155 -2 -107 -1 -112 10 -68 15 55 17
167 6 223 l-9 40 -3 -40z"/>
<path d="M1206 381 c-4 -7 -5 -15 -2 -18 9 -9 19 4 14 18 -4 11 -6 11 -12 0z"/>
<path d="M1331 290 c-8 -40 -7 -121 1 -106 5 9 7 40 5 69 -2 28 -5 45 -6 37z"/>
<path d="M1291 264 c0 -11 3 -14 6 -6 3 7 2 16 -1 19 -3 4 -6 -2 -5 -13z"/>
<path d="M1113 157 c-48 -153 -48 -157 -18 -157 23 0 31 13 26 43 -2 12 26
169 34 188 3 10 3 19 -2 22 -4 3 -22 -41 -40 -96z"/>
<path d="M3502 228 c-3 -11 -24 -58 -48 -104 -63 -123 -63 -124 -17 -124 39 0
40 1 56 53 18 58 34 197 22 197 -4 0 -9 -10 -13 -22z"/>
<path d="M3998 220 c-4 -14 -8 -34 -8 -45 1 -19 1 -19 11 -2 6 10 9 30 7 45
l-3 27 -7 -25z"/>
<path d="M3613 218 c-5 -7 -20 -51 -33 -98 -12 -47 -25 -93 -27 -102 -4 -14 1
-18 25 -18 25 0 30 5 36 31 3 17 6 53 6 80 0 26 4 58 9 72 11 29 0 55 -16 35z"/>
<path d="M1520 210 c0 -5 5 -10 10 -10 6 0 10 5 10 10 0 6 -4 10 -10 10 -5 0
-10 -4 -10 -10z"/>
<path d="M3708 180 c-4 -8 -9 -40 -12 -70 -3 -30 -8 -68 -12 -85 -6 -27 -5
-29 9 -17 9 7 19 37 22 65 8 59 3 130 -7 107z"/>
<path d="M1510 159 c0 -11 5 -17 10 -14 6 3 10 13 10 21 0 8 -4 14 -10 14 -5
0 -10 -9 -10 -21z"/>
<path d="M1195 112 c-5 -28 -11 -39 -16 -31 -5 9 -10 3 -14 -17 -4 -16 -9 -37
-12 -46 -3 -14 2 -18 23 -18 25 0 26 2 20 33 -4 25 -3 28 5 14 28 -47 39 8 14
73 l-13 35 -7 -43z"/>
<path d="M1287 128 c-7 -25 -3 -33 12 -23 13 8 15 45 2 45 -5 0 -11 -10 -14
-22z"/>
<path d="M1477 125 c-3 -16 -9 -51 -13 -78 -5 -39 -4 -47 10 -47 10 0 16 9 17
23 0 12 2 29 4 37 1 9 -1 33 -4 55 l-7 40 -7 -30z"/>
<path d="M3920 124 c0 -8 5 -12 10 -9 6 3 10 10 10 16 0 5 -4 9 -10 9 -5 0
-10 -7 -10 -16z"/>
<path d="M1029 73 c-1 -10 -1 -22 0 -27 1 -5 -6 -17 -15 -27 -15 -17 -15 -19
-1 -19 20 0 23 6 32 53 5 25 4 37 -4 37 -6 0 -12 -8 -12 -17z"/>
<path d="M3930 20 c0 -5 5 -10 10 -10 6 0 10 5 10 10 0 6 -4 10 -10 10 -5 0
-10 -4 -10 -10z"/>
<path d="M3875 10 c-3 -5 1 -10 9 -10 9 0 16 5 16 10 0 6 -4 10 -9 10 -6 0
-13 -4 -16 -10z"/>
</g>
</svg>
